999
dxfrw 0.6.3
  0
SECTION
  2
HEADER
  9
$ACADVER
  1
AC1021
  9
$DWGCODEPAGE
  3
ANSI_1252
  9
$INSBASE
 10
0
 20
0
 30
0
  9
$EXTMIN
 10
-1.9
 20
-0.6500000000000062
 30
0
  9
$EXTMAX
 10
5.850000000000001
 20
2
 30
0
  9
$LIMMIN
 10
0
 20
0
  9
$LIMMAX
 10
420
 20
297
  9
$ORTHOMODE
 70
    0
  9
$REGENMODE
 70
    1
  9
$FILLMODE
 70
    1
  9
$QTEXTMODE
 70
    0
  9
$MIRRTEXT
 70
    0
  9
$LTSCALE
 40
1
  9
$ATTMODE
 70
    0
  9
$TEXTSIZE
 40
2.5
  9
$TRACEWID
 40
15.68
  9
$TEXTSTYLE
  7
STANDARD
  9
$CLAYER
  8
noname
  9
$CELTYPE
  6
BYLAYER
  9
$CECOLOR
 62
  256
  9
$CELTSCALE
 40
1
  9
$DISPSILH
 70
    0
  9
$DIMSCALE
 40
2.5
  9
$DIMASZ
 40
2.5
  9
$DIMEXO
 40
0.625
  9
$DIMDLI
 40
3.75
  9
$DIMRND
 40
0
  9
$DIMDLE
 40
0
  9
$DIMEXE
 40
1.25
  9
$DIMTP
 40
0
  9
$DIMTM
 40
0
  9
$DIMTXT
 40
2.5
  9
$DIMCEN
 40
2.5
  9
$DIMTSZ
 40
0
  9
$DIMTOL
 70
    0
  9
$DIMLIM
 70
    0
  9
$DIMTIH
 70
    0
  9
$DIMTOH
 70
    0
  9
$DIMSE1
 70
    0
  9
$DIMSE2
 70
    0
  9
$DIMTAD
 70
    1
  9
$DIMZIN
 70
    8
  9
$DIMBLK
  1

  9
$DIMASO
 70
    1
  9
$DIMSHO
 70
    1
  9
$DIMPOST
  1

  9
$DIMAPOST
  1

  9
$DIMALT
 70
    0
  9
$DIMALTD
 70
    3
  9
$DIMALTF
 40
0.03937
  9
$DIMLFAC
 40
1
  9
$DIMTOFL
 70
    1
  9
$DIMTVP
 40
0
  9
$DIMTIX
 70
    0
  9
$DIMSOXD
 70
    0
  9
$DIMSAH
 70
    0
  9
$DIMBLK1
  1

  9
$DIMBLK2
  1

  9
$DIMSTYLE
  2
STANDARD
  9
$DIMCLRD
 70
    0
  9
$DIMCLRE
 70
    0
  9
$DIMCLRT
 70
    0
  9
$DIMTFAC
 40
1
  9
$DIMGAP
 40
0.02
  9
$DIMJUST
 70
    0
  9
$DIMSD1
 70
    0
  9
$DIMSD2
 70
    0
  9
$DIMTOLJ
 70
    0
  9
$DIMTZIN
 70
    8
  9
$DIMALTZ
 70
    0
  9
$DIMALTTZ
 70
    0
  9
$DIMUPT
 70
    0
  9
$DIMDEC
 70
    2
  9
$DIMTDEC
 70
    2
  9
$DIMALTU
 70
    2
  9
$DIMALTTD
 70
    3
  9
$DIMTXSTY
  7
STANDARD
  9
$DIMAUNIT
 70
    0
  9
$DIMADEC
 70
    0
  9
$DIMALTRND
 40
0
  9
$DIMAZIN
 70
    0
  9
$DIMDSEP
 70
   44
  9
$DIMATFIT
 70
    3
  9
$DIMFRAC
 70
    0
  9
$DIMLDRBLK
  1
STANDARD
  9
$DIMLUNIT
 70
    2
  9
$DIMLWD
 70
   -2
  9
$DIMLWE
 70
   -2
  9
$DIMTMOVE
 70
    0
  9
$DIMFXL
 40
1
  9
$DIMFXLON
 70
    0
  9
$DIMJOGANG
 40
0.7854
  9
$DIMTFILL
 70
    0
  9
$DIMTFILLCLR
 70
    0
  9
$DIMARCSYM
 70
    0
  9
$DIMLTYPE
  6

  9
$DIMLTEX1
  6

  9
$DIMLTEX2
  6

  9
$LUNITS
 70
    2
  9
$LUPREC
 70
    4
  9
$SKETCHINC
 40
1
  9
$FILLETRAD
 40
0
  9
$AUNITS
 70
    0
  9
$AUPREC
 70
    2
  9
$MENU
  1
.
  9
$ELEVATION
 40
0
  9
$PELEVATION
 40
0
  9
$THICKNESS
 40
0
  9
$LIMCHECK
 70
    0
  9
$CHAMFERA
 40
0
  9
$CHAMFERB
 40
0
  9
$CHAMFERC
 40
0
  9
$CHAMFERD
 40
0
  9
$SKPOLY
 70
    0
  9
$USRTIMER
 70
    1
  9
$ANGBASE
 50
0
  9
$ANGDIR
 70
    0
  9
$PDMODE
 70
   34
  9
$PDSIZE
 40
0
  9
$PLINEWID
 40
0
  9
$SPLFRAME
 70
    0
  9
$SPLINETYPE
 70
    2
  9
$SPLINESEGS
 70
    8
  9
$HANDSEED
  5
20000
  9
$SURFTAB1
 70
    6
  9
$SURFTAB2
 70
    6
  9
$SURFTYPE
 70
    6
  9
$SURFU
 70
    6
  9
$SURFV
 70
    6
  9
$UCSBASE
  2

  9
$UCSNAME
  2

  9
$UCSORG
 10
0
 20
0
 30
0
  9
$UCSXDIR
 10
1
 20
0
 30
0
  9
$UCSYDIR
 10
0
 20
1
 30
0
  9
$UCSORTHOREF
  2

  9
$UCSORTHOVIEW
 70
    0
  9
$UCSORGTOP
 10
0
 20
0
 30
0
  9
$UCSORGBOTTOM
 10
0
 20
0
 30
0
  9
$UCSORGLEFT
 10
0
 20
0
 30
0
  9
$UCSORGRIGHT
 10
0
 20
0
 30
0
  9
$UCSORGFRONT
 10
0
 20
0
 30
0
  9
$UCSORGBACK
 10
0
 20
0
 30
0
  9
$PUCSBASE
  2

  9
$PUCSNAME
  2

  9
$PUCSORG
 10
0
 20
0
 30
0
  9
$PUCSXDIR
 10
1
 20
0
 30
0
  9
$PUCSYDIR
 10
0
 20
1
 30
0
  9
$PUCSORTHOREF
  2

  9
$PUCSORTHOVIEW
 70
    0
  9
$PUCSORGTOP
 10
0
 20
0
 30
0
  9
$PUCSORGBOTTOM
 10
0
 20
0
 30
0
  9
$PUCSORGLEFT
 10
0
 20
0
 30
0
  9
$PUCSORGRIGHT
 10
0
 20
0
 30
0
  9
$PUCSORGFRONT
 10
0
 20
0
 30
0
  9
$PUCSORGBACK
 10
0
 20
0
 30
0
  9
$USERI1
 70
    0
  9
$USERI2
 70
    0
  9
$USERI3
 70
    0
  9
$USERI4
 70
    0
  9
$USERI5
 70
    0
  9
$USERR1
 40
0
  9
$USERR2
 40
0
  9
$USERR3
 40
0
  9
$USERR4
 40
0
  9
$USERR5
 40
0
  9
$WORLDVIEW
 70
    1
  9
$SHADEDGE
 70
    3
  9
$SHADEDIF
 70
   70
  9
$TILEMODE
 70
    1
  9
$MAXACTVP
 70
   64
  9
$PINSBASE
 10
0
 20
0
 30
0
  9
$PLIMCHECK
 70
    0
  9
$PEXTMIN
 10
0
 20
0
 30
0
  9
$PEXTMAX
 10
0
 20
0
 30
0
  9
$PLIMMIN
 10
0
 20
0
  9
$PLIMMAX
 10
0.297
 20
0.21
  9
$UNITMODE
 70
    0
  9
$VISRETAIN
 70
    1
  9
$PLINEGEN
 70
    0
  9
$PSLTSCALE
 70
    1
  9
$TREEDEPTH
 70
 3020
  9
$CMLSTYLE
  2
Standard
  9
$CMLJUST
 70
    0
  9
$CMLSCALE
 40
20
  9
$PROXYGRAPHICS
 70
    1
  9
$MEASUREMENT
 70
    1
  9
$CELWEIGHT
370
   -1
  9
$ENDCAPS
280
    0
  9
$JOINSTYLE
280
    0
  9
$LWDISPLAY
290
    0
  9
$INSUNITS
 70
    0
  9
$HYPERLINKBASE
  1

  9
$STYLESHEET
  1

  9
$XEDIT
290
    1
  9
$CEPSNTYPE
380
    0
  9
$PSTYLEMODE
290
    1
  9
$EXTNAMES
290
    1
  9
$PSVPSCALE
 40
0
  9
$OLESTARTUP
290
    0
  9
$SORTENTS
280
  127
  9
$INDEXCTL
280
    0
  9
$HIDETEXT
280
    1
  9
$XCLIPFRAME
290
    0
  9
$HALOGAP
280
    0
  9
$OBSCOLOR
 70
  257
  9
$OBSLTYPE
280
    0
  9
$INTERSECTIONDISPLAY
280
    0
  9
$INTERSECTIONCOLOR
 70
  257
  9
$DIMASSOC
280
    1
  9
$PROJECTNAME
  1

  9
$CAMERADISPLAY
290
    0
  9
$LENSLENGTH
 40
50
  9
$CAMERAHEIGHT
 40
0
  9
$STEPSPERSEC
 40
2
  9
$STEPSIZE
 40
50
  9
$3DDWFPREC
 40
2
  9
$PSOLWIDTH
 40
5
  9
$PSOLHEIGHT
 40
80
  9
$LOFTANG1
 40
1.570796326794897
  9
$LOFTANG2
 40
1.570796326794897
  9
$LOFTMAG1
 40
0
  9
$LOFTMAG2
 40
0
  9
$LOFTPARAM
 70
    7
  9
$LOFTNORMALS
280
    1
  9
$LATITUDE
 40
1
  9
$LONGITUDE
 40
1
  9
$NORTHDIRECTION
 40
0
  9
$TIMEZONE
 70
-8000
  9
$LIGHTGLYPHDISPLAY
280
    1
  9
$TILEMODELIGHTSYNCH
280
    1
  9
$SOLIDHIST
280
    1
  9
$SHOWHIST
280
    1
  9
$DWFFRAME
280
    2
  9
$DGNFRAME
280
    0
  9
$REALWORLDSCALE
290
    1
  9
$INTERFERECOLOR
 62
    1
  9
$CSHADOW
280
    0
  9
$SHADOWPLANELOCATION
 40
0
  0
ENDSEC
  0
SECTION
  2
CLASSES
  0
ENDSEC
  0
SECTION
  2
TABLES
  0
TABLE
  2
VPORT
  5
8
330
0
100
AcDbSymbolTable
 70
    1
  0
VPORT
  5
31
330
2
100
AcDbSymbolTableRecord
100
AcDbViewportTableRecord
  2
*ACTIVE
 70
    0
 10
0
 20
0
 11
1
 21
1
 12
-0.3350616246990858
 22
-0.5111109529308088
 13
0
 23
0
 14
10
 24
10
 15
10
 25
10
 16
0
 26
0
 36
1
 17
0
 27
0
 37
0
 40
0.3634566776396863
 41
2.125
 42
50
 43
0
 44
0
 50
0
 51
0
 71
    0
 72
  100
 73
    1
 74
    3
 75
    0
 76
    1
 77
    0
 78
    0
281
    0
 65
    1
110
0
120
0
130
0
111
1
121
0
131
0
112
0
122
1
132
0
 79
    0
146
0
348
10020
 60
    7
 61
    5
292
1
282
    1
141
0
142
0
 63
  250
421
3358443
  0
ENDTAB
  0
TABLE
  2
LTYPE
  5
5
330
0
100
AcDbSymbolTable
 70
    4
  0
LTYPE
  5
14
330
5
100
AcDbSymbolTableRecord
100
AcDbLinetypeTableRecord
  2
ByBlock
 70
    0
  3

 72
   65
 73
    0
 40
0
  0
LTYPE
  5
15
330
5
100
AcDbSymbolTableRecord
100
AcDbLinetypeTableRecord
  2
ByLayer
 70
    0
  3

 72
   65
 73
    0
 40
0
  0
LTYPE
  5
16
330
5
100
AcDbSymbolTableRecord
100
AcDbLinetypeTableRecord
  2
Continuous
 70
    0
  3
Solid line
 72
   65
 73
    0
 40
0
  0
LTYPE
  5
32
330
5
100
AcDbSymbolTableRecord
100
AcDbLinetypeTableRecord
  2
DOT
 70
    0
  3
Dot . . . . . . . . . . . . . . . . . . . . . .
 72
   65
 73
    2
 40
6.35
 49
0
 74
    0
 49
-6.35
 74
    0
  0
LTYPE
  5
33
330
5
100
AcDbSymbolTableRecord
100
AcDbLinetypeTableRecord
  2
DOTTINY
 70
    0
  3
Dot (.15x) .....................................
 72
   65
 73
    2
 40
0.9525
 49
0
 74
    0
 49
-0.9525
 74
    0
  0
LTYPE
  5
34
330
5
100
AcDbSymbolTableRecord
100
AcDbLinetypeTableRecord
  2
DOT2
 70
    0
  3
Dot (.5x) .....................................
 72
   65
 73
    2
 40
3.175
 49
0
 74
    0
 49
-3.175
 74
    0
  0
LTYPE
  5
35
330
5
100
AcDbSymbolTableRecord
100
AcDbLinetypeTableRecord
  2
DOTX2
 70
    0
  3
Dot (2x) .  .  .  .  .  .  .  .  .  .  .  .  .
 72
   65
 73
    2
 40
12.7
 49
0
 74
    0
 49
-12.7
 74
    0
  0
LTYPE
  5
36
330
5
100
AcDbSymbolTableRecord
100
AcDbLinetypeTableRecord
  2
DASHED
 70
    0
  3
Dashed _ _ _ _ _ _ _ _ _ _ _ _ _ _ _ _ _
 72
   65
 73
    2
 40
19.05
 49
12.7
 74
    0
 49
-6.35
 74
    0
  0
LTYPE
  5
37
330
5
100
AcDbSymbolTableRecord
100
AcDbLinetypeTableRecord
  2
DASHEDTINY
 70
    0
  3
Dashed (.15x) _ _ _ _ _ _ _ _ _ _ _ _ _ _ _ _ _
 72
   65
 73
    2
 40
2.8575
 49
1.905
 74
    0
 49
-0.9525
 74
    0
  0
LTYPE
  5
38
330
5
100
AcDbSymbolTableRecord
100
AcDbLinetypeTableRecord
  2
DASHED2
 70
    0
  3
Dashed (.5x) _ _ _ _ _ _ _ _ _ _ _ _ _ _ _ _ _
 72
   65
 73
    2
 40
9.524999999999999
 49
6.35
 74
    0
 49
-3.175
 74
    0
  0
LTYPE
  5
39
330
5
100
AcDbSymbolTableRecord
100
AcDbLinetypeTableRecord
  2
DASHEDX2
 70
    0
  3
Dashed (2x) ____  ____  ____  ____  ____  ___
 72
   65
 73
    2
 40
38.09999999999999
 49
25.4
 74
    0
 49
-12.7
 74
    0
  0
LTYPE
  5
3A
330
5
100
AcDbSymbolTableRecord
100
AcDbLinetypeTableRecord
  2
DASHDOT
 70
    0
  3
Dash dot __ . __ . __ . __ . __ . __ . __ . __
 72
   65
 73
    4
 40
25.4
 49
12.7
 74
    0
 49
-6.35
 74
    0
 49
0
 74
    0
 49
-6.35
 74
    0
  0
LTYPE
  5
3B
330
5
100
AcDbSymbolTableRecord
100
AcDbLinetypeTableRecord
  2
DASHDOTTINY
 70
    0
  3
Dash dot (.15x) _._._._._._._._._._._._._._._.
 72
   65
 73
    4
 40
3.81
 49
1.905
 74
    0
 49
-0.9525
 74
    0
 49
0
 74
    0
 49
-0.9525
 74
    0
  0
LTYPE
  5
3C
330
5
100
AcDbSymbolTableRecord
100
AcDbLinetypeTableRecord
  2
DASHDOT2
 70
    0
  3
Dash dot (.5x) _._._._._._._._._._._._._._._.
 72
   65
 73
    4
 40
12.7
 49
6.35
 74
    0
 49
-3.175
 74
    0
 49
0
 74
    0
 49
-3.175
 74
    0
  0
LTYPE
  5
3D
330
5
100
AcDbSymbolTableRecord
100
AcDbLinetypeTableRecord
  2
DASHDOTX2
 70
    0
  3
Dash dot (2x) ____  .  ____  .  ____  .  ___
 72
   65
 73
    4
 40
50.8
 49
25.4
 74
    0
 49
-12.7
 74
    0
 49
0
 74
    0
 49
-12.7
 74
    0
  0
LTYPE
  5
3E
330
5
100
AcDbSymbolTableRecord
100
AcDbLinetypeTableRecord
  2
DIVIDE
 70
    0
  3
Divide ____ . . ____ . . ____ . . ____ . . ____
 72
   65
 73
    6
 40
31.75
 49
12.7
 74
    0
 49
-6.35
 74
    0
 49
0
 74
    0
 49
-6.35
 74
    0
 49
0
 74
    0
 49
-6.35
 74
    0
  0
LTYPE
  5
3F
330
5
100
AcDbSymbolTableRecord
100
AcDbLinetypeTableRecord
  2
DIVIDETINY
 70
    0
  3
Divide (.15x) __..__..__..__..__..__..__..__.._
 72
   65
 73
    6
 40
4.7625
 49
1.905
 74
    0
 49
-0.9525
 74
    0
 49
0
 74
    0
 49
-0.9525
 74
    0
 49
0
 74
    0
 49
-0.9525
 74
    0
  0
LTYPE
  5
40
330
5
100
AcDbSymbolTableRecord
100
AcDbLinetypeTableRecord
  2
DIVIDE2
 70
    0
  3
Divide (.5x) __..__..__..__..__..__..__..__.._
 72
   65
 73
    6
 40
15.875
 49
6.35
 74
    0
 49
-3.175
 74
    0
 49
0
 74
    0
 49
-3.175
 74
    0
 49
0
 74
    0
 49
-3.175
 74
    0
  0
LTYPE
  5
41
330
5
100
AcDbSymbolTableRecord
100
AcDbLinetypeTableRecord
  2
DIVIDEX2
 70
    0
  3
Divide (2x) ________  .  .  ________  .  .  _
 72
   65
 73
    6
 40
63.5
 49
25.4
 74
    0
 49
-12.7
 74
    0
 49
0
 74
    0
 49
-12.7
 74
    0
 49
0
 74
    0
 49
-12.7
 74
    0
  0
LTYPE
  5
42
330
5
100
AcDbSymbolTableRecord
100
AcDbLinetypeTableRecord
  2
BORDER
 70
    0
  3
Border __ __ . __ __ . __ __ . __ __ . __ __ .
 72
   65
 73
    6
 40
44.45
 49
12.7
 74
    0
 49
-6.35
 74
    0
 49
12.7
 74
    0
 49
-6.35
 74
    0
 49
0
 74
    0
 49
-6.35
 74
    0
  0
LTYPE
  5
43
330
5
100
AcDbSymbolTableRecord
100
AcDbLinetypeTableRecord
  2
BORDERTINY
 70
    0
  3
Border (.15x) __.__.__.__.__.__.__.__.__.__.__.
 72
   65
 73
    6
 40
6.6675
 49
1.905
 74
    0
 49
-0.9525
 74
    0
 49
1.905
 74
    0
 49
-0.9525
 74
    0
 49
0
 74
    0
 49
-0.9525
 74
    0
  0
LTYPE
  5
44
330
5
100
AcDbSymbolTableRecord
100
AcDbLinetypeTableRecord
  2
BORDER2
 70
    0
  3
Border (.5x) __.__.__.__.__.__.__.__.__.__.__.
 72
   65
 73
    6
 40
22.225
 49
6.35
 74
    0
 49
-3.175
 74
    0
 49
6.35
 74
    0
 49
-3.175
 74
    0
 49
0
 74
    0
 49
-3.175
 74
    0
  0
LTYPE
  5
45
330
5
100
AcDbSymbolTableRecord
100
AcDbLinetypeTableRecord
  2
BORDERX2
 70
    0
  3
Border (2x) ____  ____  .  ____  ____  .  ___
 72
   65
 73
    6
 40
88.89999999999999
 49
25.4
 74
    0
 49
-12.7
 74
    0
 49
25.4
 74
    0
 49
-12.7
 74
    0
 49
0
 74
    0
 49
-12.7
 74
    0
  0
LTYPE
  5
46
330
5
100
AcDbSymbolTableRecord
100
AcDbLinetypeTableRecord
  2
CENTER
 70
    0
  3
Center ____ _ ____ _ ____ _ ____ _ ____ _ ____
 72
   65
 73
    4
 40
50.8
 49
31.75
 74
    0
 49
-6.35
 74
    0
 49
6.35
 74
    0
 49
-6.35
 74
    0
  0
LTYPE
  5
47
330
5
100
AcDbSymbolTableRecord
100
AcDbLinetypeTableRecord
  2
CENTERTINY
 70
    0
  3
Center (.15x) ___ _ ___ _ ___ _ ___ _ ___ _ ___
 72
   65
 73
    4
 40
7.62
 49
4.7625
 74
    0
 49
-0.9525
 74
    0
 49
0.9525
 74
    0
 49
-0.9525
 74
    0
  0
LTYPE
  5
48
330
5
100
AcDbSymbolTableRecord
100
AcDbLinetypeTableRecord
  2
CENTER2
 70
    0
  3
Center (.5x) ___ _ ___ _ ___ _ ___ _ ___ _ ___
 72
   65
 73
    4
 40
28.575
 49
19.05
 74
    0
 49
-3.175
 74
    0
 49
3.175
 74
    0
 49
-3.175
 74
    0
  0
LTYPE
  5
49
330
5
100
AcDbSymbolTableRecord
100
AcDbLinetypeTableRecord
  2
CENTERX2
 70
    0
  3
Center (2x) ________  __  ________  __  _____
 72
   65
 73
    4
 40
101.6
 49
63.5
 74
    0
 49
-12.7
 74
    0
 49
12.7
 74
    0
 49
-12.7
 74
    0
  0
ENDTAB
  0
TABLE
  2
LAYER
  5
2
330
0
100
AcDbSymbolTable
 70
    1
  0
LAYER
  5
10
330
2
100
AcDbSymbolTableRecord
100
AcDbLayerTableRecord
  2
0
 70
    0
 62
    7
  6
CONTINUOUS
370
    5
390
F
  0
LAYER
  5
4A
330
2
100
AcDbSymbolTableRecord
100
AcDbLayerTableRecord
  2
noname
 70
    0
 62
    7
  6
CONTINUOUS
370
    0
390
F
  0
LAYER
  5
4B
330
2
100
AcDbSymbolTableRecord
100
AcDbLayerTableRecord
  2
pump
 70
    0
 62
  253
420
10526884
  6
CONTINUOUS
370
    0
390
F
  0
LAYER
  5
4C
330
2
100
AcDbSymbolTableRecord
100
AcDbLayerTableRecord
  2
pump2
 70
    0
 62
   41
420
16770690
  6
CONTINUOUS
370
    0
390
F
  0
LAYER
  5
4D
330
2
100
AcDbSymbolTableRecord
100
AcDbLayerTableRecord
  2
tubes
 70
    0
 62
  140
420
43775
  6
CONTINUOUS
370
    5
390
F
  0
ENDTAB
  0
TABLE
  2
STYLE
  5
3
330
0
100
AcDbSymbolTable
 70
    3
  0
STYLE
  5
4E
330
2
100
AcDbSymbolTableRecord
100
AcDbTextStyleTableRecord
  2
Standard
 70
    0
 40
0
 41
1
 50
0
 71
    0
 42
1
  3
txt
  4

  0
ENDTAB
  0
TABLE
  2
VIEW
  5
6
330
0
100
AcDbSymbolTable
 70
    0
  0
ENDTAB
  0
TABLE
  2
UCS
  5
7
330
0
100
AcDbSymbolTable
 70
    0
  0
ENDTAB
  0
TABLE
  2
APPID
  5
9
330
0
100
AcDbSymbolTable
 70
    1
  0
APPID
  5
12
330
9
100
AcDbSymbolTableRecord
100
AcDbRegAppTableRecord
  2
ACAD
 70
    0
  0
APPID
  5
4F
330
9
100
AcDbSymbolTableRecord
100
AcDbRegAppTableRecord
  2
LibreCad
 70
    0
  0
ENDTAB
  0
TABLE
  2
DIMSTYLE
  5
A
330
0
100
AcDbSymbolTable
 70
    1
100
AcDbDimStyleTable
 71
    1
  0
DIMSTYLE
105
50
330
A
100
AcDbSymbolTableRecord
100
AcDbDimStyleTableRecord
  2
Standard
 70
    0
 40
1
 41
0.1
 42
0.000625
 43
0.38
 44
0.00125
 45
0
 46
0
 47
0
 48
0
 49
0
140
0.1
141
0.09
142
0
143
25.4
144
1
145
0
146
1
147
0.02
148
0
 71
    0
 72
    0
 73
    1
 74
    1
 75
    0
 76
    0
 77
    0
 78
    1
 79
    0
170
    0
171
    2
172
    0
173
    0
174
    0
175
    0
176
  256
177
    0
178
    0
179
    1
271
    1
272
    4
273
    2
274
    2
275
    0
276
    0
277
    2
278
    0
279
    0
280
    0
281
    0
282
    0
283
    1
284
    0
285
    0
286
    0
288
    0
289
    3
340
standard
341

371
   -2
372
   -2
  0
ENDTAB
  0
TABLE
  2
BLOCK_RECORD
  5
1
330
0
100
AcDbSymbolTable
 70
    2
  0
BLOCK_RECORD
  5
1F
330
1
100
AcDbSymbolTableRecord
100
AcDbBlockTableRecord
  2
*Model_Space
 70
    0
280
    1
281
    0
  0
BLOCK_RECORD
  5
1E
330
1
100
AcDbSymbolTableRecord
100
AcDbBlockTableRecord
  2
*Paper_Space
 70
    0
280
    1
281
    0
  0
BLOCK_RECORD
  5
51
330
1
100
AcDbSymbolTableRecord
100
AcDbBlockTableRecord
  2
*D1
 70
    0
280
    1
281
    0
  0
BLOCK_RECORD
  5
54
330
1
100
AcDbSymbolTableRecord
100
AcDbBlockTableRecord
  2
*D2
 70
    0
280
    1
281
    0
  0
BLOCK_RECORD
  5
57
330
1
100
AcDbSymbolTableRecord
100
AcDbBlockTableRecord
  2
flume
 70
    0
280
    1
281
    0
  0
ENDTAB
  0
ENDSEC
  0
SECTION
  2
BLOCKS
  0
BLOCK
  5
20
330
1F
100
AcDbEntity
  8
0
100
AcDbBlockBegin
  2
*Model_Space
 70
    0
 10
0
 20
0
 30
0
  3
*Model_Space
  1

  0
ENDBLK
  5
21
330
1F
100
AcDbEntity
  8
0
100
AcDbBlockEnd
  0
BLOCK
  5
1C
330
1B
100
AcDbEntity
  8
0
100
AcDbBlockBegin
  2
*Paper_Space
 70
    0
 10
0
 20
0
 30
0
  3
*Paper_Space
  1

  0
ENDBLK
  5
1D
330
1F
100
AcDbEntity
  8
0
100
AcDbBlockEnd
  0
BLOCK
  5
52
330
51
100
AcDbEntity
  8
0
100
AcDbBlockBegin
  2
*D1
 70
    1
 10
0
 20
0
  3
*D1
  1

  0
LINE
  5
5A
100
AcDbEntity
  8
noname
  6
ByBlock
 62
    0
370
   -2
100
AcDbLine
 10
1
 20
-0.0006250000000000555
 11
1
 21
-0.3012500000000001
  0
LINE
  5
5B
100
AcDbEntity
  8
noname
  6
ByBlock
 62
    0
370
   -2
100
AcDbLine
 10
3
 20
-0.0006250000000000555
 11
3
 21
-0.3012500000000001
  0
LINE
  5
5C
100
AcDbEntity
  8
noname
  6
ByBlock
 62
  256
370
   -2
100
AcDbLine
 10
1
 20
-0.3000000000000001
 11
1.902222222222222
 21
-0.3000000000000001
  0
SOLID
  5
5D
100
AcDbEntity
  8
noname
  6
ByBlock
 62
  256
370
   -2
100
AcDbTrace
 10
1
 20
-0.3000000000000001
 30
0
 11
1.1
 21
-0.2833486136890865
 31
0
 12
1.1
 22
-0.3166513863109137
 32
0
 13
1.1
 23
-0.3166513863109137
 33
0
  0
SOLID
  5
5E
100
AcDbEntity
  8
noname
  6
ByBlock
 62
  256
370
   -2
100
AcDbTrace
 10
3
 20
-0.3000000000000001
 30
0
 11
2.9
 21
-0.3166513863109137
 31
0
 12
2.9
 22
-0.2833486136890865
 32
0
 13
2.9
 23
-0.2833486136890865
 33
0
  0
LINE
  5
5F
100
AcDbEntity
  8
noname
  6
ByBlock
 62
  256
370
   -2
100
AcDbLine
 10
2.097777777777778
 20
-0.3000000000000001
 11
3
 21
-0.3000000000000001
  0
MTEXT
  5
60
100
AcDbEntity
  8
noname
  6
CONTINUOUS
 62
    0
370
   -2
100
AcDbMText
 10
2
 20
-0.3000000000000001
 30
0
 40
0.1
 41
0.1555555555555556
 71
    5
 72
    1
  1
2.0
  7
standard
210
0
220
0
230
1
 50
0
 73
    2
 44
1
  0
ENDBLK
  5
53
330
51
100
AcDbEntity
  8
0
100
AcDbBlockEnd
  0
BLOCK
  5
55
330
54
100
AcDbEntity
  8
0
100
AcDbBlockBegin
  2
*D2
 70
    1
 10
0
 20
0
  3
*D2
  1

  0
LINE
  5
61
100
AcDbEntity
  8
noname
  6
ByBlock
 62
    0
370
   -2
100
AcDbLine
 10
-1.148068456708479e-019
 20
-0.000625
 11
-1.104441855353556e-016
 21
-0.60125
  0
LINE
  5
62
100
AcDbEntity
  8
noname
  6
ByBlock
 62
    0
370
   -2
100
AcDbLine
 10
5.25
 20
-0.0006249999999999913
 11
5.25
 21
-0.60125
  0
LINE
  5
63
100
AcDbEntity
  8
noname
  6
ByBlock
 62
  256
370
   -2
100
AcDbLine
 10
-1.102145718440139e-016
 20
-0.6
 11
2.527222222222219
 21
-0.6
  0
SOLID
  5
64
100
AcDbEntity
  8
noname
  6
ByBlock
 62
  256
370
   -2
100
AcDbTrace
 10
-1.102145718440139e-016
 20
-0.6
 30
0
 11
0.09999999999999989
 21
-0.5833486136890864
 31
0
 12
0.09999999999999989
 22
-0.6166513863109137
 32
0
 13
0.09999999999999989
 23
-0.6166513863109137
 33
0
  0
SOLID
  5
65
100
AcDbEntity
  8
noname
  6
ByBlock
 62
  256
370
   -2
100
AcDbTrace
 10
5.25
 20
-0.6
 30
0
 11
5.15
 21
-0.6166513863109135
 31
0
 12
5.15
 22
-0.5833486136890864
 32
0
 13
5.15
 23
-0.5833486136890864
 33
0
  0
LINE
  5
66
100
AcDbEntity
  8
noname
  6
ByBlock
 62
  256
370
   -2
100
AcDbLine
 10
2.722777777777781
 20
-0.6
 11
5.25
 21
-0.6
  0
MTEXT
  5
67
100
AcDbEntity
  8
noname
  6
CONTINUOUS
 62
    0
370
   -2
100
AcDbMText
 10
2.625
 20
-0.6
 30
0
 40
0.1
 41
0.1555555555555618
 71
    5
 72
    1
  1
5.2
  7
standard
210
0
220
0
230
1
 50
0
 73
    2
 44
1
  0
ENDBLK
  5
56
330
54
100
AcDbEntity
  8
0
100
AcDbBlockEnd
  0
BLOCK
  5
58
330
57
100
AcDbEntity
  8
0
100
AcDbBlockBegin
  2
flume
 70
    0
 10
0
 20
0
  3
flume
  1

  0
ENDBLK
  5
59
330
57
100
AcDbEntity
  8
0
100
AcDbBlockEnd
  0
ENDSEC
  0
SECTION
  2
ENTITIES
  0
HATCH
  5
68
100
AcDbEntity
  8
pump
  6
CONTINUOUS
 62
  256
370
  158
100
AcDbHatch
 10
0
 20
0
 30
0
210
0
220
0
230
1
  2
gost_glass
 70
    0
 71
    0
 91
    1
 92
    0
 93
    4
 72
    1
 10
0
 20
0
 11
5.25
 21
0
 72
    1
 10
5.25
 20
0
 11
5.25
 21
0.6
 72
    1
 10
5.25
 20
0.6
 11
0
 21
0.6
 72
    1
 10
0
 20
0.6
 11
0
 21
0
 97
    0
 75
    0
 76
    1
 52
0
 41
3
 77
    0
 78
    0
 98
    0
  0
HATCH
  5
69
100
AcDbEntity
  8
pump
  6
CONTINUOUS
 62
  256
370
  158
100
AcDbHatch
 10
0
 20
0
 30
0
210
0
220
0
230
1
  2
gost_glass
 70
    0
 71
    0
 91
    1
 92
    0
 93
    4
 72
    1
 10
0
 20
0
 11
5.25
 21
0
 72
    1
 10
5.25
 20
0
 11
5.25
 21
0.6
 72
    1
 10
5.25
 20
0.6
 11
0
 21
0.6
 72
    1
 10
0
 20
0.6
 11
0
 21
0
 97
    0
 75
    0
 76
    1
 52
0
 41
3
 77
    0
 78
    0
 98
    0
  0
HATCH
  5
6A
100
AcDbEntity
  8
pump
  6
CONTINUOUS
 62
  256
370
  158
100
AcDbHatch
 10
0
 20
0
 30
0
210
0
220
0
230
1
  2
gost_glass
 70
    0
 71
    0
 91
    1
 92
    0
 93
    4
 72
    1
 10
0
 20
0
 11
5.25
 21
0
 72
    1
 10
5.25
 20
0
 11
5.25
 21
0.6
 72
    1
 10
5.25
 20
0.6
 11
0
 21
0.6
 72
    1
 10
0
 20
0.6
 11
0
 21
0
 97
    0
 75
    0
 76
    1
 52
0
 41
0.1
 77
    0
 78
    0
 98
    0
  0
HATCH
  5
6B
100
AcDbEntity
  8
pump
  6
CONTINUOUS
 62
  256
370
  158
100
AcDbHatch
 10
0
 20
0
 30
0
210
0
220
0
230
1
  2
gost_glass
 70
    0
 71
    0
 91
    1
 92
    0
 93
    4
 72
    1
 10
0
 20
0
 11
5.25
 21
0
 72
    1
 10
5.25
 20
0
 11
5.25
 21
0.6
 72
    1
 10
5.25
 20
0.6
 11
0
 21
0.6
 72
    1
 10
0
 20
0.6
 11
0
 21
0
 97
    0
 75
    0
 76
    1
 52
0
 41
1
 77
    0
 78
    0
 98
    0
  0
HATCH
  5
6C
100
AcDbEntity
  8
pump
  6
CONTINUOUS
 62
  256
370
  158
100
AcDbHatch
 10
0
 20
0
 30
0
210
0
220
0
230
1
  2
gost_glass
 70
    0
 71
    0
 91
    1
 92
    0
 93
    8
 72
    1
 10
0
 20
0
 11
5.25
 21
0
 72
    1
 10
5.25
 20
0
 11
5.25
 21
0.6
 72
    1
 10
5.25
 20
0.6
 11
0
 21
0.6
 72
    1
 10
0
 20
0.6
 11
0
 21
0
 72
    1
 10
1
 20
0.6
 11
3
 21
0.6
 72
    1
 10
3
 20
0.6
 11
3
 21
-5.551115123125783e-017
 72
    1
 10
3
 20
-5.551115123125783e-017
 11
1
 21
-5.551115123125783e-017
 72
    1
 10
1
 20
-5.551115123125783e-017
 11
1
 21
0.6
 97
    0
 75
    0
 76
    1
 52
0
 41
1
 77
    0
 78
    0
 98
    0
  0
HATCH
  5
6D
100
AcDbEntity
  8
pump
  6
CONTINUOUS
 62
  256
370
  158
100
AcDbHatch
 10
0
 20
0
 30
0
210
0
220
0
230
1
  2
gost_glass
 70
    0
 71
    0
 91
    1
 92
    0
 93
    4
 72
    1
 10
0
 20
0
 11
5.25
 21
0
 72
    1
 10
5.25
 20
0
 11
5.25
 21
0.6
 72
    1
 10
5.25
 20
0.6
 11
0
 21
0.6
 72
    1
 10
0
 20
0.6
 11
0
 21
0
 97
    0
 75
    0
 76
    1
 52
0
 41
1
 77
    0
 78
    0
 98
    0
  0
HATCH
  5
6E
100
AcDbEntity
  8
pump
  6
CONTINUOUS
 62
  256
370
  158
100
AcDbHatch
 10
0
 20
0
 30
0
210
0
220
0
230
1
  2
gost_glass
 70
    0
 71
    0
 91
    1
 92
    0
 93
    4
 72
    1
 10
0
 20
0
 11
5.25
 21
0
 72
    1
 10
5.25
 20
0
 11
5.25
 21
0.6
 72
    1
 10
5.25
 20
0.6
 11
0
 21
0.6
 72
    1
 10
0
 20
0.6
 11
0
 21
0
 97
    0
 75
    0
 76
    1
 52
0
 41
1
 77
    0
 78
    0
 98
    0
  0
HATCH
  5
6F
100
AcDbEntity
  8
pump2
  6
CONTINUOUS
 62
  256
370
  158
100
AcDbHatch
 10
0
 20
0
 30
0
210
0
220
0
230
1
  2
SOLID
 70
    1
 71
    0
 91
    1
 92
    0
 93
  151
 72
    2
 10
1.06
 20
0.5499999999999999
 40
0.01000000000000001
 50
0
 51
360
 73
    1
 72
    2
 10
1.1
 20
0.5
 40
0.01000000000000001
 50
0
 51
360
 73
    1
 72
    2
 10
1.18
 20
0.5399999999999999
 40
0.01000000000000001
 50
0
 51
360
 73
    1
 72
    2
 10
1.17
 20
0.45
 40
0.01000000000000001
 50
0
 51
360
 73
    1
 72
    2
 10
1.08
 20
0.42
 40
0.01000000000000001
 50
0
 51
360
 73
    1
 72
    2
 10
1.29
 20
0.44
 40
0.009999999999999953
 50
0
 51
360
 73
    1
 72
    2
 10
1.27
 20
0.47
 40
0.01000000000000001
 50
0
 51
360
 73
    1
 72
    2
 10
1.31
 20
0.51
 40
0.01000000000000001
 50
0
 51
360
 73
    1
 72
    2
 10
1.38
 20
0.5
 40
0.01000000000000001
 50
0
 51
360
 73
    1
 72
    2
 10
1.4
 20
0.5499999999999999
 40
0.01000000000000001
 50
0
 51
360
 73
    1
 72
    2
 10
1.45
 20
0.51
 40
0.01000000000000001
 50
0
 51
360
 73
    1
 72
    2
 10
1.5
 20
0.54
 40
0.009999999999999898
 50
0
 51
360
 73
    1
 72
    2
 10
1.57
 20
0.5499999999999999
 40
0.01000000000000001
 50
0
 51
360
 73
    1
 72
    2
 10
1.51
 20
0.47
 40
0.009999999999999953
 50
0
 51
360
 73
    1
 72
    2
 10
1.42
 20
0.44
 40
0.01000000000000001
 50
0
 51
360
 73
    1
 72
    2
 10
1.19
 20
0.37
 40
0.01000000000000001
 50
0
 51
360
 73
    1
 72
    2
 10
1.27
 20
0.39
 40
0.01000000000000001
 50
0
 51
360
 73
    1
 72
    2
 10
1.09
 20
0.31
 40
0.01000000000000001
 50
0
 51
360
 73
    1
 72
    2
 10
1.13
 20
0.37
 40
0.01000000000000001
 50
0
 51
360
 73
    1
 72
    2
 10
1.4
 20
0.31
 40
0.01000000000000001
 50
0
 51
360
 73
    1
 72
    2
 10
1.37
 20
0.36
 40
0.01000000000000001
 50
0
 51
360
 73
    1
 72
    2
 10
1.447538660821072
 20
0.2965063509461097
 40
0.01000000000000001
 50
0
 51
360
 73
    1
 72
    2
 10
1.507179676972449
 20
0.2732050807568879
 40
0.01000000000000001
 50
0
 51
360
 73
    1
 72
    2
 10
1.556461709275205
 20
0.3478460969082652
 40
0.01000000000000001
 50
0
 51
360
 73
    1
 72
    2
 10
1.59280145523736
 20
0.2649038105676658
 40
0.01000000000000001
 50
0
 51
360
 73
    1
 72
    2
 10
1.529859168896761
 20
0.1939230484541327
 40
0.01000000000000001
 50
0
 51
360
 73
    1
 72
    2
 10
1.701724503691493
 20
0.3162435565298215
 40
0.009999999999999953
 50
0
 51
360
 73
    1
 72
    2
 10
1.669403995615804
 20
0.3322243186433546
 40
0.01000000000000001
 50
0
 51
360
 73
    1
 72
    2
 10
1.684045011767181
 20
0.3868653347947322
 40
0.01000000000000001
 50
0
 51
360
 73
    1
 72
    2
 10
1.749666790032092
 20
0.4132050807568878
 40
0.01000000000000001
 50
0
 51
360
 73
    1
 72
    2
 10
1.741987298107781
 20
0.4665063509461097
 40
0.01000000000000001
 50
0
 51
360
 73
    1
 72
    2
 10
1.805288568297003
 20
0.4568653347947321
 40
0.01000000000000001
 50
0
 51
360
 73
    1
 72
    2
 10
1.833589838486225
 20
0.5078460969082654
 40
0.009999999999999898
 50
0
 51
360
 73
    1
 72
    2
 10
1.889211616751136
 20
0.5515063509461097
 40
0.01000000000000001
 50
0
 51
360
 73
    1
 72
    2
 10
1.877250092524069
 20
0.4522243186433547
 40
0.009999999999999953
 50
0
 51
360
 73
    1
 72
    2
 10
1.81430780618347
 20
0.3812435565298216
 40
0.01000000000000001
 50
0
 51
360
 73
    1
 72
    2
 10
1.650121963313049
 20
0.2056217782649107
 40
0.01000000000000001
 50
0
 51
360
 73
    1
 72
    2
 10
1.709403995615804
 20
0.2629422863405996
 40
0.01000000000000001
 50
0
 51
360
 73
    1
 72
    2
 10
1.593519422934605
 20
0.1036602540378445
 40
0.01000000000000001
 50
0
 51
360
 73
    1
 72
    2
 10
1.598160439085983
 20
0.1756217782649108
 40
0.01000000000000001
 50
0
 51
360
 73
    1
 72
    2
 10
1.861987298107781
 20
0.2586602540378445
 40
0.01000000000000001
 50
0
 51
360
 73
    1
 72
    2
 10
1.811006535994248
 20
0.2869615242270664
 40
0.01000000000000001
 50
0
 51
360
 73
    1
 72
    2
 10
1.57
 20
0.55
 40
0.01000000000000001
 50
0
 51
360
 73
    1
 72
    2
 10
1.69
 20
0.54
 40
0.009999999999999953
 50
0
 51
360
 73
    1
 72
    2
 10
1.67
 20
0.5700000000000001
 40
0.01000000000000001
 50
0
 51
360
 73
    1
 72
    2
 10
1.59
 20
0.4700000000000001
 40
0.01000000000000001
 50
0
 51
360
 73
    1
 72
    2
 10
1.67
 20
0.4900000000000001
 40
0.01000000000000001
 50
0
 51
360
 73
    1
 72
    2
 10
1.867153903091735
 20
0.3965063509461096
 40
0.01000000000000001
 50
0
 51
360
 73
    1
 72
    2
 10
1.926794919243112
 20
0.3732050807568876
 40
0.01000000000000001
 50
0
 51
360
 73
    1
 72
    2
 10
1.976076951545867
 20
0.4478460969082652
 40
0.01000000000000001
 50
0
 51
360
 73
    1
 72
    2
 10
2.012416697508023
 20
0.3649038105676659
 40
0.01000000000000001
 50
0
 51
360
 73
    1
 72
    2
 10
1.949474411167424
 20
0.2939230484541326
 40
0.01000000000000001
 50
0
 51
360
 73
    1
 72
    2
 10
2.069737205583712
 20
0.3056217782649105
 40
0.01000000000000001
 50
0
 51
360
 73
    1
 72
    2
 10
2.013134665205268
 20
0.2036602540378444
 40
0.01000000000000001
 50
0
 51
360
 73
    1
 72
    2
 10
2.017775681356646
 20
0.2756217782649107
 40
0.01000000000000001
 50
0
 51
360
 73
    1
 72
    2
 10
2.101820693123826
 20
0.3376537180435968
 40
0.01000000000000001
 50
0
 51
360
 73
    1
 72
    2
 10
2.050839931010293
 20
0.3659549882328187
 40
0.01000000000000001
 50
0
 51
360
 73
    1
 72
    2
 10
2.149737205583712
 20
0.349737205583712
 40
0.01000000000000001
 50
0
 51
360
 73
    1
 72
    2
 10
2.213038475772934
 20
0.3593782217350894
 40
0.01000000000000001
 50
0
 51
360
 73
    1
 72
    2
 10
2.218397459621556
 20
0.4486602540378443
 40
0.01000000000000001
 50
0
 51
360
 73
    1
 72
    2
 10
2.291339745962156
 20
0.3950000000000001
 40
0.01000000000000001
 50
0
 51
360
 73
    1
 72
    2
 10
2.272320508075688
 20
0.3020577136594006
 40
0.01000000000000001
 50
0
 51
360
 73
    1
 72
    2
 10
2.359999999999999
 20
0.4939230484541326
 40
0.009999999999999953
 50
0
 51
360
 73
    1
 72
    2
 10
2.324019237886467
 20
0.4916025403784439
 40
0.01000000000000001
 50
0
 51
360
 73
    1
 72
    2
 10
2.370621778264911
 20
0.3723205080756887
 40
0.01000000000000001
 50
0
 51
360
 73
    1
 72
    2
 10
2.393301270189222
 20
0.4516025403784439
 40
0.01000000000000001
 50
0
 51
360
 73
    1
 72
    2
 10
2.372583302491977
 20
0.255717967697245
 40
0.01000000000000001
 50
0
 51
360
 73
    1
 72
    2
 10
2.34062177826491
 20
0.3203589838486226
 40
0.01000000000000001
 50
0
 51
360
 73
    1
 72
    2
 10
2.225577136594005
 20
0.1693782217350892
 40
0.01000000000000001
 50
0
 51
360
 73
    1
 72
    2
 10
2.174596374480473
 20
0.1976794919243111
 40
0.01000000000000001
 50
0
 51
360
 73
    1
 72
    2
 10
2.273493649053891
 20
0.1814617092752043
 40
0.01000000000000001
 50
0
 51
360
 73
    1
 72
    2
 10
2.336794919243113
 20
0.1911027254265819
 40
0.01000000000000001
 50
0
 51
360
 73
    1
 72
    2
 10
2.342153903091735
 20
0.280384757729337
 40
0.01000000000000001
 50
0
 51
360
 73
    1
 72
    2
 10
2.415096189432334
 20
0.2267245036914924
 40
0.01000000000000001
 50
0
 51
360
 73
    1
 72
    2
 10
2.396076951545868
 20
0.1337822173508933
 40
0.01000000000000001
 50
0
 51
360
 73
    1
 72
    2
 10
2.483756443470179
 20
0.3256475521456252
 40
0.009999999999999953
 50
0
 51
360
 73
    1
 72
    2
 10
2.447775681356646
 20
0.3233270440699363
 40
0.01000000000000001
 50
0
 51
360
 73
    1
 72
    2
 10
2.49437822173509
 20
0.2040450117671812
 40
0.01000000000000001
 50
0
 51
360
 73
    1
 72
    2
 10
2.517057713659401
 20
0.2833270440699364
 40
0.01000000000000001
 50
0
 51
360
 73
    1
 72
    2
 10
2.496339745962156
 20
0.08744247138873729
 40
0.01000000000000001
 50
0
 51
360
 73
    1
 72
    2
 10
2.46437822173509
 20
0.1520834875401151
 40
0.01000000000000001
 50
0
 51
360
 73
    1
 72
    2
 10
2.651339745962157
 20
0.3559103465619137
 40
0.01000000000000001
 50
0
 51
360
 73
    1
 72
    2
 10
2.593038475772935
 20
0.3549295844483805
 40
0.01000000000000001
 50
0
 51
360
 73
    1
 72
    2
 10
2.728493649053891
 20
0.523134665205268
 40
0.01000000000000001
 50
0
 51
360
 73
    1
 72
    2
 10
2.709474411167424
 20
0.4301923788646683
 40
0.01000000000000001
 50
0
 51
360
 73
    1
 72
    2
 10
2.807775681356646
 20
0.5004551732809563
 40
0.01000000000000001
 50
0
 51
360
 73
    1
 72
    2
 10
2.809737205583712
 20
0.3838526329025128
 40
0.01000000000000001
 50
0
 51
360
 73
    1
 72
    2
 10
2.777775681356646
 20
0.4484936490538903
 40
0.01000000000000001
 50
0
 51
360
 73
    1
 72
    2
 10
2.819544826719043
 20
0.5442373906318493
 40
0.01000000000000001
 50
0
 51
360
 73
    1
 72
    2
 10
1.167416697508023
 20
0.2476794919243113
 40
0.01000000000000001
 50
0
 51
360
 73
    1
 72
    2
 10
1.230717967697245
 20
0.2573205080756887
 40
0.01000000000000001
 50
0
 51
360
 73
    1
 72
    2
 10
1.236076951545867
 20
0.3466025403784436
 40
0.01000000000000001
 50
0
 51
360
 73
    1
 72
    2
 10
1.309019237886467
 20
0.2929422863405994
 40
0.01000000000000001
 50
0
 51
360
 73
    1
 72
    2
 10
1.29
 20
0.1999999999999999
 40
0.01000000000000001
 50
0
 51
360
 73
    1
 72
    2
 10
1.388301270189222
 20
0.270262794416288
 40
0.01000000000000001
 50
0
 51
360
 73
    1
 72
    2
 10
1.390262794416288
 20
0.1536602540378443
 40
0.01000000000000001
 50
0
 51
360
 73
    1
 72
    2
 10
1.358301270189222
 20
0.2183012701892219
 40
0.01000000000000001
 50
0
 51
360
 73
    1
 72
    2
 10
1.243256628518317
 20
0.06732050807568846
 40
0.01000000000000001
 50
0
 51
360
 73
    1
 72
    2
 10
1.192275866404784
 20
0.09562177826491042
 40
0.01000000000000001
 50
0
 51
360
 73
    1
 72
    2
 10
1.291173140978202
 20
0.07940399561580358
 40
0.01000000000000001
 50
0
 51
360
 73
    1
 72
    2
 10
1.354474411167425
 20
0.08904501176718116
 40
0.01000000000000001
 50
0
 51
360
 73
    1
 72
    2
 10
1.359833395016047
 20
0.1783270440699363
 40
0.01000000000000001
 50
0
 51
360
 73
    1
 72
    2
 10
1.432775681356646
 20
0.1246667900320917
 40
0.01000000000000001
 50
0
 51
360
 73
    1
 72
    2
 10
1.501435935394491
 20
0.2235898384862245
 40
0.009999999999999953
 50
0
 51
360
 73
    1
 72
    2
 10
1.465455173280957
 20
0.2212693304105356
 40
0.01000000000000001
 50
0
 51
360
 73
    1
 72
    2
 10
1.512057713659401
 20
0.1019872981077805
 40
0.01000000000000001
 50
0
 51
360
 73
    1
 72
    2
 10
2.847227722772277
 20
0.2122772277227721
 40
0.01000000000000001
 50
0
 51
360
 73
    1
 72
    2
 10
2.758651481164714
 20
0.1653950689117454
 40
0.01000000000000001
 50
0
 51
360
 73
    1
 72
    2
 10
2.695577362325399
 20
0.1543653122215928
 40
0.01000000000000001
 50
0
 51
360
 73
    1
 72
    2
 10
2.662051611088318
 20
0.2372871067269539
 40
0.01000000000000001
 50
0
 51
360
 73
    1
 72
    2
 10
2.610007248939155
 20
0.1631832311974862
 40
0.01000000000000001
 50
0
 51
360
 73
    1
 72
    2
 10
2.811519110292998
 20
0.1279410104059103
 40
0.01000000000000001
 50
0
 51
360
 73
    1
 72
    2
 10
2.830635640149024
 20
0.07106783319324149
 40
0.01000000000000001
 50
0
 51
360
 73
    1
 72
    2
 10
2.691382565996732
 20
0.1045951754260003
 40
0.009999999999999953
 50
0
 51
360
 73
    1
 72
    2
 10
2.726191331221742
 20
0.09519571461645704
 40
0.01000000000000001
 50
0
 51
360
 73
    1
 72
    2
 10
1.695814157129579
 20
0.1829422863405994
 40
0.009999999999999898
 50
0
 51
360
 73
    1
 72
    2
 10
1.76143593539449
 20
0.1566025403784436
 40
0.009999999999999953
 50
0
 51
360
 73
    1
 72
    2
 10
1.742416697508023
 20
0.06366025403784427
 40
0.01000000000000001
 50
0
 51
360
 73
    1
 72
    2
 10
1.780551362713291
 20
0.1033012701892215
 40
0.01000000000000001
 50
0
 51
360
 73
    1
 72
    2
 10
1.843852632902512
 20
0.1129422863405989
 40
0.01000000000000001
 50
0
 51
360
 73
    1
 72
    2
 10
1.849211616751135
 20
0.202224318643354
 40
0.01000000000000001
 50
0
 51
360
 73
    1
 72
    2
 10
1.922153903091735
 20
0.1485640646055099
 40
0.01000000000000001
 50
0
 51
360
 73
    1
 72
    2
 10
1.903134665205267
 20
0.05562177826491028
 40
0.01000000000000001
 50
0
 51
360
 73
    1
 72
    2
 10
2.001435935394489
 20
0.1258845726811983
 40
0.01000000000000001
 50
0
 51
360
 73
    1
 72
    2
 10
1.954903810567665
 20
0.168686027918558
 40
0.01000000000000001
 50
0
 51
360
 73
    1
 72
    2
 10
2.062583302491977
 20
0.1682050807568885
 40
0.01000000000000001
 50
0
 51
360
 73
    1
 72
    2
 10
2.011339745962156
 20
0.07500000000000032
 40
0.01000000000000001
 50
0
 51
360
 73
    1
 72
    2
 10
2.091339745962156
 20
0.09499999999999983
 40
0.01000000000000001
 50
0
 51
360
 73
    1
 72
    2
 10
2.029641016151377
 20
0.1088010851410836
 40
0.01000000000000001
 50
0
 51
360
 73
    1
 72
    2
 10
2.122057713659401
 20
0.1144744111674248
 40
0.01000000000000001
 50
0
 51
360
 73
    1
 72
    2
 10
2.18356406460551
 20
0.06545517328095697
 40
0.01000000000000001
 50
0
 51
360
 73
    1
 72
    2
 10
2.123230854637602
 20
0.04655789870753865
 40
0.01000000000000001
 50
0
 51
360
 73
    1
 72
    2
 10
1.086744617359773
 20
0.1581278143157854
 40
0.009999999999999953
 50
0
 51
360
 73
    1
 72
    2
 10
1.121088350520646
 20
0.1471502010699675
 40
0.01000000000000001
 50
0
 51
360
 73
    1
 72
    2
 10
1.114767017268887
 20
0.09093596136221904
 40
0.01000000000000001
 50
0
 51
360
 73
    1
 72
    2
 10
1.121257790410167
 20
0.2752125737253414
 40
0.01000000000000001
 50
0
 51
360
 73
    1
 72
    2
 10
1.071195444064656
 20
0.209685774029475
 40
0.01000000000000001
 50
0
 51
360
 73
    1
 72
    2
 10
2.048134665205269
 20
0.5603589838486225
 40
0.01000000000000001
 50
0
 51
360
 73
    1
 72
    2
 10
2.120096189432335
 20
0.555717967697245
 40
0.009999999999999953
 50
0
 51
360
 73
    1
 72
    2
 10
2.057153903091736
 20
0.4847372055837119
 40
0.01000000000000001
 50
0
 51
360
 73
    1
 72
    2
 10
2.11
 20
0.5
 40
0.01000000000000001
 50
0
 51
360
 73
    1
 72
    2
 10
2.450288568297003
 20
0.4244744111674231
 40
0.01000000000000001
 50
0
 51
360
 73
    1
 72
    2
 10
2.540288568297003
 20
0.4144744111674236
 40
0.01000000000000001
 50
0
 51
360
 73
    1
 72
    2
 10
2.550288568297002
 20
0.534474411167423
 40
0.009999999999999953
 50
0
 51
360
 73
    1
 72
    2
 10
2.520288568297003
 20
0.5144744111674233
 40
0.01000000000000001
 50
0
 51
360
 73
    1
 72
    2
 10
2.600288568297003
 20
0.5144744111674233
 40
0.01000000000000001
 50
0
 51
360
 73
    1
 72
    2
 10
2.754045011767182
 20
0.426724503691492
 40
0.01000000000000001
 50
0
 51
360
 73
    1
 72
    2
 10
2.836987298107782
 20
0.463064249653648
 40
0.01000000000000001
 50
0
 51
360
 73
    1
 72
    2
 10
2.785647552145626
 20
0.5719872981077799
 40
0.009999999999999953
 50
0
 51
360
 73
    1
 72
    2
 10
2.769666790032093
 20
0.5396667900320916
 40
0.01000000000000001
 50
0
 51
360
 73
    1
 72
    2
 10
2.8
 20
0.3
 40
0.01000000000000001
 50
0
 51
360
 73
    1
 97
    0
 75
    0
 76
    1
 98
    0
  0
HATCH
  5
70
100
AcDbEntity
  8
0
  6
CONTINUOUS
 62
    7
370
  158
100
AcDbHatch
 10
0
 20
0
 30
0
210
0
220
0
230
1
  2
SOLID
 70
    1
 71
    0
 91
    1
 92
    0
 93
    4
 72
    1
 10
1
 20
1.5
 11
-1.5
 21
1.5
 72
    1
 10
-1.5
 20
1.5
 11
-1.5
 21
1.4
 72
    1
 10
-1.5
 20
1.4
 11
1
 21
1.4
 72
    1
 10
1
 20
1.4
 11
1
 21
1.5
 97
    0
 75
    0
 76
    1
 98
    0
  0
HATCH
  5
71
100
AcDbEntity
  8
tubes
  6
CONTINUOUS
 62
  256
370
  158
100
AcDbHatch
 10
0
 20
0
 30
0
210
0
220
0
230
1
  2
SOLID
 70
    1
 71
    0
 91
    1
 92
    0
 93
    6
 72
    1
 10
5.300000000000001
 20
1.7
 11
1.3
 21
1.52
 72
    1
 10
1.3
 20
1.52
 11
1
 21
1.5
 72
    1
 10
1
 20
1.5
 11
1
 21
1.4
 72
    1
 10
1
 20
1.4
 11
1.3
 21
1.38
 72
    1
 10
1.3
 20
1.38
 11
5.300000000000001
 21
1.2
 72
    1
 10
5.300000000000001
 20
1.2
 11
5.300000000000001
 21
1.7
 97
    0
 75
    0
 76
    1
 98
    0
  0
HATCH
  5
72
100
AcDbEntity
  8
tubes
  6
CONTINUOUS
 62
  256
370
  158
100
AcDbHatch
 10
0
 20
0
 30
0
210
0
220
0
230
1
  2
SOLID
 70
    1
 71
    0
 91
    1
 92
    0
 93
    4
 72
    1
 10
5.315840586654627
 20
1.196376573273108
 11
5.784159413345374
 21
1.196376573273108
 72
    1
 10
5.784159413345374
 20
1.196376573273108
 11
5.850000000000001
 21
0.6
 72
    1
 10
5.850000000000001
 20
0.6
 11
5.25
 21
0.6
 72
    1
 10
5.25
 20
0.6
 11
5.315840586654627
 21
1.196376573273108
 97
    0
 75
    0
 76
    1
 98
    0
  0
HATCH
  5
73
100
AcDbEntity
  8
tubes
  6
CONTINUOUS
 62
  256
370
  158
100
AcDbHatch
 10
0
 20
0
 30
0
210
0
220
0
230
1
  2
SOLID
 70
    1
 71
    0
 91
    1
 92
    0
 93
    4
 72
    1
 10
5.25
 20
0.6
 11
5.850000000000001
 21
0.6
 72
    1
 10
5.850000000000001
 20
0.6
 11
5.850000000000001
 21
8.673617379884035e-018
 72
    1
 10
5.850000000000001
 20
8.673617379884035e-018
 11
5.25
 21
8.673617379884035e-018
 72
    1
 10
5.25
 20
8.673617379884035e-018
 11
5.25
 21
0.6
 97
    0
 75
    0
 76
    1
 98
    0
  0
HATCH
  5
74
100
AcDbEntity
  8
tubes
  6
CONTINUOUS
 62
  256
370
  158
100
AcDbHatch
 10
0
 20
0
 30
0
210
0
220
0
230
1
  2
SOLID
 70
    1
 71
    0
 91
    1
 92
    0
 93
    4
 72
    1
 10
5.800000000000001
 20
1.2
 11
5.300000000000001
 21
1.2
 72
    1
 10
5.300000000000001
 20
1.2
 11
5.300000000000001
 21
1.7
 72
    1
 10
5.300000000000001
 20
1.7
 11
5.800000000000001
 21
1.7
 72
    1
 10
5.800000000000001
 20
1.7
 11
5.800000000000001
 21
1.2
 97
    0
 75
    0
 76
    1
 98
    0
  0
HATCH
  5
75
100
AcDbEntity
  8
pump
  6
CONTINUOUS
 62
  256
370
  158
100
AcDbHatch
 10
0
 20
0
 30
0
210
0
220
0
230
1
  2
SOLID
 70
    1
 71
    0
 91
    1
 92
    0
 93
    4
 72
    1
 10
-1.9
 20
1.5
 11
-1.5
 21
1.5
 72
    1
 10
-1.5
 20
1.5
 11
-1.5
 21
1.4
 72
    1
 10
-1.5
 20
1.4
 11
-1.9
 21
1.4
 72
    1
 10
-1.9
 20
1.4
 11
-1.9
 21
1.5
 97
    0
 75
    0
 76
    1
 98
    0
  0
HATCH
  5
76
100
AcDbEntity
  8
pump
  6
CONTINUOUS
 62
  256
370
  158
100
AcDbHatch
 10
0
 20
0
 30
0
210
0
220
0
230
1
  2
SOLID
 70
    1
 71
    0
 91
    1
 92
    0
 93
    4
 72
    1
 10
-1.8
 20
1.6
 11
-1.6
 21
1.6
 72
    1
 10
-1.6
 20
1.6
 11
-1.6
 21
1.5
 72
    1
 10
-1.6
 20
1.5
 11
-1.8
 21
1.5
 72
    1
 10
-1.8
 20
1.5
 11
-1.8
 21
1.6
 97
    0
 75
    0
 76
    1
 98
    0
  0
HATCH
  5
77
100
AcDbEntity
  8
pump
  6
CONTINUOUS
 62
  256
370
  158
100
AcDbHatch
 10
0
 20
0
 30
0
210
0
220
0
230
1
  2
SOLID
 70
    1
 71
    0
 91
    1
 92
    0
 93
    4
 72
    1
 10
-1.5
 20
2
 11
-1.9
 21
2
 72
    1
 10
-1.9
 20
2
 11
-1.9
 21
1.6
 72
    1
 10
-1.9
 20
1.6
 11
-1.5
 21
1.6
 72
    1
 10
-1.5
 20
1.6
 11
-1.5
 21
2
 97
    0
 75
    0
 76
    1
 98
    0
  0
HATCH
  5
78
100
AcDbEntity
  8
tubes
  6
CONTINUOUS
 62
  256
370
  158
100
AcDbHatch
 10
0
 20
0
 30
0
210
0
220
0
230
1
  2
SOLID
 70
    1
 71
    0
 91
    1
 92
    0
 93
    8
 72
    1
 10
1.110223024625157e-016
 20
0.5999999999999999
 11
-1.5
 21
0.4999999999999999
 72
    1
 10
-1.5
 20
0.5
 11
-1.6
 21
1.4
 72
    1
 10
-1.6
 20
1.4
 11
-1.8
 21
1.4
 72
    1
 10
-1.8
 20
1.4
 11
-1.9
 21
0.5
 72
    1
 10
-1.9
 20
0.4999999999999999
 11
-1.9
 21
0.09999999999999989
 72
    1
 10
-1.9
 20
0.09999999999999989
 11
-1.5
 21
0.09999999999999989
 72
    1
 10
-1.5
 20
0.09999999999999989
 11
1.110223024625157e-016
 21
-1.110223024625157e-016
 72
    1
 10
1.110223024625157e-016
 20
-1.110223024625157e-016
 11
1.110223024625157e-016
 21
0.5999999999999999
 97
    0
 75
    0
 76
    1
 98
    0
  0
LINE
  5
79
100
AcDbEntity
  8
0
  6
ByLayer
 62
  256
370
   -1
100
AcDbLine
 10
5.25
 20
0.6
 11
5.315840586654627
 21
1.196376573273108
  0
LINE
  5
7A
100
AcDbEntity
  8
0
  6
ByLayer
 62
  256
370
   -1
100
AcDbLine
 10
5.850000000000001
 20
0.6
 11
5.784159413345374
 21
1.196376573273108
  0
LWPOLYLINE
  5
7B
100
AcDbEntity
  8
0
  6
ByLayer
 62
  256
370
   -1
100
AcDbPolyline
 90
    4
 70
    1
 43
0
 10
5.800000000000001
 20
1.2
 10
5.300000000000001
 20
1.2
 10
5.300000000000001
 20
1.7
 10
5.800000000000001
 20
1.7
  0
LINE
  5
7C
100
AcDbEntity
  8
0
  6
ByLayer
 62
  256
370
   -1
100
AcDbLine
 10
5.300000000000001
 20
1.7
 11
1.3
 21
1.52
  0
LINE
  5
7D
100
AcDbEntity
  8
0
  6
ByLayer
 62
  256
370
   -1
100
AcDbLine
 10
5.300000000000001
 20
1.2
 11
1.3
 21
1.38
  0
LINE
  5
7E
100
AcDbEntity
  8
0
  6
ByLayer
 62
  256
370
   -1
100
AcDbLine
 10
1.3
 20
1.52
 11
1.3
 21
1.38
  0
LINE
  5
7F
100
AcDbEntity
  8
0
  6
ByLayer
 62
  256
370
   -1
100
AcDbLine
 10
1.110223024625157e-016
 20
0.5999999999999999
 11
-1.5
 21
0.4999999999999999
  0
LINE
  5
80
100
AcDbEntity
  8
0
  6
ByLayer
 62
  256
370
   -1
100
AcDbLine
 10
-1.5
 20
0.4999999999999999
 11
-1.5
 21
0.09999999999999989
  0
LINE
  5
81
100
AcDbEntity
  8
0
  6
ByLayer
 62
  256
370
   -1
100
AcDbLine
 10
-1.5
 20
0.09999999999999989
 11
1.110223024625157e-016
 21
-1.110223024625157e-016
  0
LINE
  5
82
100
AcDbEntity
  8
0
  6
ByLayer
 62
  256
370
   -1
100
AcDbLine
 10
-1.5
 20
0.4999999999999999
 11
-1.9
 21
0.4999999999999999
  0
LINE
  5
83
100
AcDbEntity
  8
0
  6
ByLayer
 62
  256
370
   -1
100
AcDbLine
 10
-1.9
 20
0.4999999999999999
 11
-1.9
 21
0.09999999999999989
  0
LINE
  5
84
100
AcDbEntity
  8
0
  6
ByLayer
 62
  256
370
   -1
100
AcDbLine
 10
-1.9
 20
0.09999999999999989
 11
-1.5
 21
0.09999999999999989
  0
LINE
  5
85
100
AcDbEntity
  8
0
  6
ByLayer
 62
  256
370
   -1
100
AcDbLine
 10
1.3
 20
1.52
 11
1
 21
1.5
  0
LINE
  5
86
100
AcDbEntity
  8
0
  6
ByLayer
 62
  256
370
   -1
100
AcDbLine
 10
1
 20
1.5
 11
1
 21
1.4
  0
LINE
  5
87
100
AcDbEntity
  8
0
  6
ByLayer
 62
  256
370
   -1
100
AcDbLine
 10
1
 20
1.4
 11
1.3
 21
1.38
  0
LWPOLYLINE
  5
88
100
AcDbEntity
  8
0
  6
ByLayer
 62
  256
370
   -1
100
AcDbPolyline
 90
    4
 70
    1
 43
0
 10
1
 20
1.5
 10
-1.5
 20
1.5
 10
-1.5
 20
1.4
 10
1
 20
1.4
  0
LWPOLYLINE
  5
89
100
AcDbEntity
  8
0
  6
ByLayer
 62
  256
370
   -1
100
AcDbPolyline
 90
    4
 70
    1
 43
0
 10
5.1
 20
0.6000000000000001
 10
5.2
 20
0.6000000000000001
 10
5.2
 20
1.110223024625157e-016
 10
5.1
 20
1.110223024625157e-016
  0
LWPOLYLINE
  5
8A
100
AcDbEntity
  8
0
  6
ByLayer
 62
  256
370
   -1
100
AcDbPolyline
 90
    4
 70
    1
 43
0
 10
-1.5
 20
2
 10
-1.9
 20
2
 10
-1.9
 20
1.6
 10
-1.5
 20
1.6
  0
LWPOLYLINE
  5
8B
100
AcDbEntity
  8
0
  6
ByLayer
 62
  256
370
   -1
100
AcDbPolyline
 90
    4
 70
    1
 43
0
 10
-1.8
 20
1.6
 10
-1.6
 20
1.6
 10
-1.6
 20
1.5
 10
-1.8
 20
1.5
  0
LWPOLYLINE
  5
8C
100
AcDbEntity
  8
0
  6
ByLayer
 62
  256
370
   -1
100
AcDbPolyline
 90
    4
 70
    1
 43
0
 10
-1.9
 20
1.5
 10
-1.5
 20
1.5
 10
-1.5
 20
1.4
 10
-1.9
 20
1.4
  0
LINE
  5
8D
100
AcDbEntity
  8
0
  6
ByLayer
 62
  256
370
   -1
100
AcDbLine
 10
-1.9
 20
0.5
 11
-1.8
 21
1.4
  0
LINE
  5
8E
100
AcDbEntity
  8
0
  6
ByLayer
 62
  256
370
   -1
100
AcDbLine
 10
-1.8
 20
1.4
 11
-1.6
 21
1.4
  0
LINE
  5
8F
100
AcDbEntity
  8
0
  6
ByLayer
 62
  256
370
   -1
100
AcDbLine
 10
-1.6
 20
1.4
 11
-1.5
 21
0.5
  0
DIMENSION
  5
90
100
AcDbEntity
  8
noname
  6
ByLayer
 62
  256
370
   -1
100
AcDbDimension
  2
*D1
 10
3
 20
-0.3000000000000001
 30
0
 11
2
 21
-0.3000000000000001
 31
0
 70
   33
 71
    5
  3
Standard
 53
0
210
0
220
0
230
1
100
AcDbAlignedDimension
 13
1
 23
-5.551115123125783e-017
 33
0
 14
3
 24
-5.551115123125783e-017
 34
0
  0
DIMENSION
  5
91
100
AcDbEntity
  8
noname
  6
ByLayer
 62
  256
370
   -1
100
AcDbDimension
  2
*D2
 10
5.25
 20
-0.6
 30
0
 11
2.625
 21
-0.6
 31
0
 70
   33
 71
    5
  3
Standard
 53
0
210
0
220
0
230
1
100
AcDbAlignedDimension
 13
0
 23
0
 33
0
 14
5.25
 24
8.673617379884035e-018
 34
0
  0
LINE
  5
92
100
AcDbEntity
  8
tubes
  6
CONTINUOUS
 62
  256
370
  158
100
AcDbLine
 10
5.315840586654627
 20
1.196376573273108
 11
5.784159413345374
 21
1.196376573273108
  0
LINE
  5
93
100
AcDbEntity
  8
tubes
  6
CONTINUOUS
 62
  256
370
  158
100
AcDbLine
 10
5.850000000000001
 20
0.6
 11
5.25
 21
0.6
  0
LINE
  5
94
100
AcDbEntity
  8
0
  6
CONTINUOUS
 62
    7
370
  158
100
AcDbLine
 10
1
 20
1.5
 11
1
 21
1.4
  0
LINE
  5
95
100
AcDbEntity
  8
tubes
  6
CONTINUOUS
 62
    7
370
  158
100
AcDbLine
 10
5.300000000000001
 20
1.7
 11
5.300000000000001
 21
1.2
  0
LWPOLYLINE
  5
96
100
AcDbEntity
  8
0
  6
ByLayer
 62
  256
370
   -1
100
AcDbPolyline
 90
    4
 70
    1
 43
0
 10
5.25
 20
0.6
 10
5.850000000000001
 20
0.6
 10
5.850000000000001
 20
8.673617379884035e-018
 10
5.25
 20
8.673617379884035e-018
  0
HATCH
  5
97
100
AcDbEntity
  8
pump
  6
CONTINUOUS
 62
  256
370
  158
100
AcDbHatch
 10
0
 20
0
 30
0
210
0
220
0
230
1
  2
SOLID
 70
    1
 71
    0
 91
    1
 92
    0
 93
    4
 72
    1
 10
-1.2
 20
1.55
 11
-0.7
 21
1.55
 72
    1
 10
-0.7
 20
1.55
 11
-0.7
 21
1.35
 72
    1
 10
-0.7
 20
1.35
 11
-1.2
 21
1.35
 72
    1
 10
-1.2
 20
1.35
 11
-1.2
 21
1.55
 97
    0
 75
    0
 76
    1
 98
    0
  0
LWPOLYLINE
  5
98
100
AcDbEntity
  8
0
  6
ByLayer
 62
  256
370
   -1
100
AcDbPolyline
 90
    4
 70
    1
 43
0
 10
-1.2
 20
1.55
 10
-0.7
 20
1.55
 10
-0.7
 20
1.35
 10
-1.2
 20
1.35
  0
CIRCLE
  5
99
100
AcDbEntity
  8
pump2
  6
CONTINUOUS
 62
  256
370
  158
100
AcDbCircle
 10
1.06
 20
0.5499999999999999
 40
0.01000000000000001
  0
CIRCLE
  5
9A
100
AcDbEntity
  8
pump2
  6
CONTINUOUS
 62
  256
370
  158
100
AcDbCircle
 10
1.1
 20
0.5
 40
0.01000000000000001
  0
CIRCLE
  5
9B
100
AcDbEntity
  8
pump2
  6
CONTINUOUS
 62
  256
370
  158
100
AcDbCircle
 10
1.18
 20
0.5399999999999999
 40
0.01000000000000001
  0
CIRCLE
  5
9C
100
AcDbEntity
  8
pump2
  6
CONTINUOUS
 62
  256
370
  158
100
AcDbCircle
 10
1.17
 20
0.45
 40
0.01000000000000001
  0
CIRCLE
  5
9D
100
AcDbEntity
  8
pump2
  6
CONTINUOUS
 62
  256
370
  158
100
AcDbCircle
 10
1.08
 20
0.42
 40
0.01000000000000001
  0
CIRCLE
  5
9E
100
AcDbEntity
  8
pump2
  6
CONTINUOUS
 62
  256
370
  158
100
AcDbCircle
 10
1.29
 20
0.44
 40
0.009999999999999953
  0
CIRCLE
  5
9F
100
AcDbEntity
  8
pump2
  6
CONTINUOUS
 62
  256
370
  158
100
AcDbCircle
 10
1.27
 20
0.47
 40
0.01000000000000001
  0
CIRCLE
  5
A0
100
AcDbEntity
  8
pump2
  6
CONTINUOUS
 62
  256
370
  158
100
AcDbCircle
 10
1.31
 20
0.51
 40
0.01000000000000001
  0
CIRCLE
  5
A1
100
AcDbEntity
  8
pump2
  6
CONTINUOUS
 62
  256
370
  158
100
AcDbCircle
 10
1.38
 20
0.5
 40
0.01000000000000001
  0
CIRCLE
  5
A2
100
AcDbEntity
  8
pump2
  6
CONTINUOUS
 62
  256
370
  158
100
AcDbCircle
 10
1.4
 20
0.5499999999999999
 40
0.01000000000000001
  0
CIRCLE
  5
A3
100
AcDbEntity
  8
pump2
  6
CONTINUOUS
 62
  256
370
  158
100
AcDbCircle
 10
1.45
 20
0.51
 40
0.01000000000000001
  0
CIRCLE
  5
A4
100
AcDbEntity
  8
pump2
  6
CONTINUOUS
 62
  256
370
  158
100
AcDbCircle
 10
1.5
 20
0.54
 40
0.009999999999999898
  0
CIRCLE
  5
A5
100
AcDbEntity
  8
pump2
  6
CONTINUOUS
 62
  256
370
  158
100
AcDbCircle
 10
1.57
 20
0.5499999999999999
 40
0.01000000000000001
  0
CIRCLE
  5
A6
100
AcDbEntity
  8
pump2
  6
CONTINUOUS
 62
  256
370
  158
100
AcDbCircle
 10
1.51
 20
0.47
 40
0.009999999999999953
  0
CIRCLE
  5
A7
100
AcDbEntity
  8
pump2
  6
CONTINUOUS
 62
  256
370
  158
100
AcDbCircle
 10
1.42
 20
0.44
 40
0.01000000000000001
  0
CIRCLE
  5
A8
100
AcDbEntity
  8
pump2
  6
CONTINUOUS
 62
  256
370
  158
100
AcDbCircle
 10
1.19
 20
0.37
 40
0.01000000000000001
  0
CIRCLE
  5
A9
100
AcDbEntity
  8
pump2
  6
CONTINUOUS
 62
  256
370
  158
100
AcDbCircle
 10
1.27
 20
0.39
 40
0.01000000000000001
  0
CIRCLE
  5
AA
100
AcDbEntity
  8
pump2
  6
CONTINUOUS
 62
  256
370
  158
100
AcDbCircle
 10
1.09
 20
0.31
 40
0.01000000000000001
  0
CIRCLE
  5
AB
100
AcDbEntity
  8
pump2
  6
CONTINUOUS
 62
  256
370
  158
100
AcDbCircle
 10
1.13
 20
0.37
 40
0.01000000000000001
  0
CIRCLE
  5
AC
100
AcDbEntity
  8
pump2
  6
CONTINUOUS
 62
  256
370
  158
100
AcDbCircle
 10
1.4
 20
0.31
 40
0.01000000000000001
  0
CIRCLE
  5
AD
100
AcDbEntity
  8
pump2
  6
CONTINUOUS
 62
  256
370
  158
100
AcDbCircle
 10
1.37
 20
0.36
 40
0.01000000000000001
  0
CIRCLE
  5
AE
100
AcDbEntity
  8
pump2
  6
CONTINUOUS
 62
  256
370
  158
100
AcDbCircle
 10
1.447538660821072
 20
0.2965063509461097
 40
0.01000000000000001
  0
CIRCLE
  5
AF
100
AcDbEntity
  8
pump2
  6
CONTINUOUS
 62
  256
370
  158
100
AcDbCircle
 10
1.507179676972449
 20
0.2732050807568879
 40
0.01000000000000001
  0
CIRCLE
  5
B0
100
AcDbEntity
  8
pump2
  6
CONTINUOUS
 62
  256
370
  158
100
AcDbCircle
 10
1.556461709275205
 20
0.3478460969082652
 40
0.01000000000000001
  0
CIRCLE
  5
B1
100
AcDbEntity
  8
pump2
  6
CONTINUOUS
 62
  256
370
  158
100
AcDbCircle
 10
1.59280145523736
 20
0.2649038105676658
 40
0.01000000000000001
  0
CIRCLE
  5
B2
100
AcDbEntity
  8
pump2
  6
CONTINUOUS
 62
  256
370
  158
100
AcDbCircle
 10
1.529859168896761
 20
0.1939230484541327
 40
0.01000000000000001
  0
CIRCLE
  5
B3
100
AcDbEntity
  8
pump2
  6
CONTINUOUS
 62
  256
370
  158
100
AcDbCircle
 10
1.701724503691493
 20
0.3162435565298215
 40
0.009999999999999953
  0
CIRCLE
  5
B4
100
AcDbEntity
  8
pump2
  6
CONTINUOUS
 62
  256
370
  158
100
AcDbCircle
 10
1.669403995615804
 20
0.3322243186433546
 40
0.01000000000000001
  0
CIRCLE
  5
B5
100
AcDbEntity
  8
pump2
  6
CONTINUOUS
 62
  256
370
  158
100
AcDbCircle
 10
1.684045011767181
 20
0.3868653347947322
 40
0.01000000000000001
  0
CIRCLE
  5
B6
100
AcDbEntity
  8
pump2
  6
CONTINUOUS
 62
  256
370
  158
100
AcDbCircle
 10
1.749666790032092
 20
0.4132050807568878
 40
0.01000000000000001
  0
CIRCLE
  5
B7
100
AcDbEntity
  8
pump2
  6
CONTINUOUS
 62
  256
370
  158
100
AcDbCircle
 10
1.741987298107781
 20
0.4665063509461097
 40
0.01000000000000001
  0
CIRCLE
  5
B8
100
AcDbEntity
  8
pump2
  6
CONTINUOUS
 62
  256
370
  158
100
AcDbCircle
 10
1.805288568297003
 20
0.4568653347947321
 40
0.01000000000000001
  0
CIRCLE
  5
B9
100
AcDbEntity
  8
pump2
  6
CONTINUOUS
 62
  256
370
  158
100
AcDbCircle
 10
1.833589838486225
 20
0.5078460969082654
 40
0.009999999999999898
  0
CIRCLE
  5
BA
100
AcDbEntity
  8
pump2
  6
CONTINUOUS
 62
  256
370
  158
100
AcDbCircle
 10
1.889211616751136
 20
0.5515063509461097
 40
0.01000000000000001
  0
CIRCLE
  5
BB
100
AcDbEntity
  8
pump2
  6
CONTINUOUS
 62
  256
370
  158
100
AcDbCircle
 10
1.877250092524069
 20
0.4522243186433547
 40
0.009999999999999953
  0
CIRCLE
  5
BC
100
AcDbEntity
  8
pump2
  6
CONTINUOUS
 62
  256
370
  158
100
AcDbCircle
 10
1.81430780618347
 20
0.3812435565298216
 40
0.01000000000000001
  0
CIRCLE
  5
BD
100
AcDbEntity
  8
pump2
  6
CONTINUOUS
 62
  256
370
  158
100
AcDbCircle
 10
1.650121963313049
 20
0.2056217782649107
 40
0.01000000000000001
  0
CIRCLE
  5
BE
100
AcDbEntity
  8
pump2
  6
CONTINUOUS
 62
  256
370
  158
100
AcDbCircle
 10
1.709403995615804
 20
0.2629422863405996
 40
0.01000000000000001
  0
CIRCLE
  5
BF
100
AcDbEntity
  8
pump2
  6
CONTINUOUS
 62
  256
370
  158
100
AcDbCircle
 10
1.593519422934605
 20
0.1036602540378445
 40
0.01000000000000001
  0
CIRCLE
  5
C0
100
AcDbEntity
  8
pump2
  6
CONTINUOUS
 62
  256
370
  158
100
AcDbCircle
 10
1.598160439085983
 20
0.1756217782649108
 40
0.01000000000000001
  0
CIRCLE
  5
C1
100
AcDbEntity
  8
pump2
  6
CONTINUOUS
 62
  256
370
  158
100
AcDbCircle
 10
1.861987298107781
 20
0.2586602540378445
 40
0.01000000000000001
  0
CIRCLE
  5
C2
100
AcDbEntity
  8
pump2
  6
CONTINUOUS
 62
  256
370
  158
100
AcDbCircle
 10
1.811006535994248
 20
0.2869615242270664
 40
0.01000000000000001
  0
CIRCLE
  5
C3
100
AcDbEntity
  8
pump2
  6
CONTINUOUS
 62
  256
370
  158
100
AcDbCircle
 10
1.57
 20
0.55
 40
0.01000000000000001
  0
CIRCLE
  5
C4
100
AcDbEntity
  8
pump2
  6
CONTINUOUS
 62
  256
370
  158
100
AcDbCircle
 10
1.69
 20
0.54
 40
0.009999999999999953
  0
CIRCLE
  5
C5
100
AcDbEntity
  8
pump2
  6
CONTINUOUS
 62
  256
370
  158
100
AcDbCircle
 10
1.67
 20
0.5700000000000001
 40
0.01000000000000001
  0
CIRCLE
  5
C6
100
AcDbEntity
  8
pump2
  6
CONTINUOUS
 62
  256
370
  158
100
AcDbCircle
 10
1.59
 20
0.4700000000000001
 40
0.01000000000000001
  0
CIRCLE
  5
C7
100
AcDbEntity
  8
pump2
  6
CONTINUOUS
 62
  256
370
  158
100
AcDbCircle
 10
1.67
 20
0.4900000000000001
 40
0.01000000000000001
  0
CIRCLE
  5
C8
100
AcDbEntity
  8
pump2
  6
CONTINUOUS
 62
  256
370
  158
100
AcDbCircle
 10
1.867153903091735
 20
0.3965063509461096
 40
0.01000000000000001
  0
CIRCLE
  5
C9
100
AcDbEntity
  8
pump2
  6
CONTINUOUS
 62
  256
370
  158
100
AcDbCircle
 10
1.926794919243112
 20
0.3732050807568876
 40
0.01000000000000001
  0
CIRCLE
  5
CA
100
AcDbEntity
  8
pump2
  6
CONTINUOUS
 62
  256
370
  158
100
AcDbCircle
 10
1.976076951545867
 20
0.4478460969082652
 40
0.01000000000000001
  0
CIRCLE
  5
CB
100
AcDbEntity
  8
pump2
  6
CONTINUOUS
 62
  256
370
  158
100
AcDbCircle
 10
2.012416697508023
 20
0.3649038105676659
 40
0.01000000000000001
  0
CIRCLE
  5
CC
100
AcDbEntity
  8
pump2
  6
CONTINUOUS
 62
  256
370
  158
100
AcDbCircle
 10
1.949474411167424
 20
0.2939230484541326
 40
0.01000000000000001
  0
CIRCLE
  5
CD
100
AcDbEntity
  8
pump2
  6
CONTINUOUS
 62
  256
370
  158
100
AcDbCircle
 10
2.069737205583712
 20
0.3056217782649105
 40
0.01000000000000001
  0
CIRCLE
  5
CE
100
AcDbEntity
  8
pump2
  6
CONTINUOUS
 62
  256
370
  158
100
AcDbCircle
 10
2.013134665205268
 20
0.2036602540378444
 40
0.01000000000000001
  0
CIRCLE
  5
CF
100
AcDbEntity
  8
pump2
  6
CONTINUOUS
 62
  256
370
  158
100
AcDbCircle
 10
2.017775681356646
 20
0.2756217782649107
 40
0.01000000000000001
  0
CIRCLE
  5
D0
100
AcDbEntity
  8
pump2
  6
CONTINUOUS
 62
  256
370
  158
100
AcDbCircle
 10
2.101820693123826
 20
0.3376537180435968
 40
0.01000000000000001
  0
CIRCLE
  5
D1
100
AcDbEntity
  8
pump2
  6
CONTINUOUS
 62
  256
370
  158
100
AcDbCircle
 10
2.050839931010293
 20
0.3659549882328187
 40
0.01000000000000001
  0
CIRCLE
  5
D2
100
AcDbEntity
  8
pump2
  6
CONTINUOUS
 62
  256
370
  158
100
AcDbCircle
 10
2.149737205583712
 20
0.349737205583712
 40
0.01000000000000001
  0
CIRCLE
  5
D3
100
AcDbEntity
  8
pump2
  6
CONTINUOUS
 62
  256
370
  158
100
AcDbCircle
 10
2.213038475772934
 20
0.3593782217350894
 40
0.01000000000000001
  0
CIRCLE
  5
D4
100
AcDbEntity
  8
pump2
  6
CONTINUOUS
 62
  256
370
  158
100
AcDbCircle
 10
2.218397459621556
 20
0.4486602540378443
 40
0.01000000000000001
  0
CIRCLE
  5
D5
100
AcDbEntity
  8
pump2
  6
CONTINUOUS
 62
  256
370
  158
100
AcDbCircle
 10
2.291339745962156
 20
0.3950000000000001
 40
0.01000000000000001
  0
CIRCLE
  5
D6
100
AcDbEntity
  8
pump2
  6
CONTINUOUS
 62
  256
370
  158
100
AcDbCircle
 10
2.272320508075688
 20
0.3020577136594006
 40
0.01000000000000001
  0
CIRCLE
  5
D7
100
AcDbEntity
  8
pump2
  6
CONTINUOUS
 62
  256
370
  158
100
AcDbCircle
 10
2.359999999999999
 20
0.4939230484541326
 40
0.009999999999999953
  0
CIRCLE
  5
D8
100
AcDbEntity
  8
pump2
  6
CONTINUOUS
 62
  256
370
  158
100
AcDbCircle
 10
2.324019237886467
 20
0.4916025403784439
 40
0.01000000000000001
  0
CIRCLE
  5
D9
100
AcDbEntity
  8
pump2
  6
CONTINUOUS
 62
  256
370
  158
100
AcDbCircle
 10
2.370621778264911
 20
0.3723205080756887
 40
0.01000000000000001
  0
CIRCLE
  5
DA
100
AcDbEntity
  8
pump2
  6
CONTINUOUS
 62
  256
370
  158
100
AcDbCircle
 10
2.393301270189222
 20
0.4516025403784439
 40
0.01000000000000001
  0
CIRCLE
  5
DB
100
AcDbEntity
  8
pump2
  6
CONTINUOUS
 62
  256
370
  158
100
AcDbCircle
 10
2.372583302491977
 20
0.255717967697245
 40
0.01000000000000001
  0
CIRCLE
  5
DC
100
AcDbEntity
  8
pump2
  6
CONTINUOUS
 62
  256
370
  158
100
AcDbCircle
 10
2.34062177826491
 20
0.3203589838486226
 40
0.01000000000000001
  0
CIRCLE
  5
DD
100
AcDbEntity
  8
pump2
  6
CONTINUOUS
 62
  256
370
  158
100
AcDbCircle
 10
2.225577136594005
 20
0.1693782217350892
 40
0.01000000000000001
  0
CIRCLE
  5
DE
100
AcDbEntity
  8
pump2
  6
CONTINUOUS
 62
  256
370
  158
100
AcDbCircle
 10
2.174596374480473
 20
0.1976794919243111
 40
0.01000000000000001
  0
CIRCLE
  5
DF
100
AcDbEntity
  8
pump2
  6
CONTINUOUS
 62
  256
370
  158
100
AcDbCircle
 10
2.273493649053891
 20
0.1814617092752043
 40
0.01000000000000001
  0
CIRCLE
  5
E0
100
AcDbEntity
  8
pump2
  6
CONTINUOUS
 62
  256
370
  158
100
AcDbCircle
 10
2.336794919243113
 20
0.1911027254265819
 40
0.01000000000000001
  0
CIRCLE
  5
E1
100
AcDbEntity
  8
pump2
  6
CONTINUOUS
 62
  256
370
  158
100
AcDbCircle
 10
2.342153903091735
 20
0.280384757729337
 40
0.01000000000000001
  0
CIRCLE
  5
E2
100
AcDbEntity
  8
pump2
  6
CONTINUOUS
 62
  256
370
  158
100
AcDbCircle
 10
2.415096189432334
 20
0.2267245036914924
 40
0.01000000000000001
  0
CIRCLE
  5
E3
100
AcDbEntity
  8
pump2
  6
CONTINUOUS
 62
  256
370
  158
100
AcDbCircle
 10
2.396076951545868
 20
0.1337822173508933
 40
0.01000000000000001
  0
CIRCLE
  5
E4
100
AcDbEntity
  8
pump2
  6
CONTINUOUS
 62
  256
370
  158
100
AcDbCircle
 10
2.483756443470179
 20
0.3256475521456252
 40
0.009999999999999953
  0
CIRCLE
  5
E5
100
AcDbEntity
  8
pump2
  6
CONTINUOUS
 62
  256
370
  158
100
AcDbCircle
 10
2.447775681356646
 20
0.3233270440699363
 40
0.01000000000000001
  0
CIRCLE
  5
E6
100
AcDbEntity
  8
pump2
  6
CONTINUOUS
 62
  256
370
  158
100
AcDbCircle
 10
2.49437822173509
 20
0.2040450117671812
 40
0.01000000000000001
  0
CIRCLE
  5
E7
100
AcDbEntity
  8
pump2
  6
CONTINUOUS
 62
  256
370
  158
100
AcDbCircle
 10
2.517057713659401
 20
0.2833270440699364
 40
0.01000000000000001
  0
CIRCLE
  5
E8
100
AcDbEntity
  8
pump2
  6
CONTINUOUS
 62
  256
370
  158
100
AcDbCircle
 10
2.496339745962156
 20
0.08744247138873729
 40
0.01000000000000001
  0
CIRCLE
  5
E9
100
AcDbEntity
  8
pump2
  6
CONTINUOUS
 62
  256
370
  158
100
AcDbCircle
 10
2.46437822173509
 20
0.1520834875401151
 40
0.01000000000000001
  0
CIRCLE
  5
EA
100
AcDbEntity
  8
pump2
  6
CONTINUOUS
 62
  256
370
  158
100
AcDbCircle
 10
2.651339745962157
 20
0.3559103465619137
 40
0.01000000000000001
  0
CIRCLE
  5
EB
100
AcDbEntity
  8
pump2
  6
CONTINUOUS
 62
  256
370
  158
100
AcDbCircle
 10
2.593038475772935
 20
0.3549295844483805
 40
0.01000000000000001
  0
CIRCLE
  5
EC
100
AcDbEntity
  8
pump2
  6
CONTINUOUS
 62
  256
370
  158
100
AcDbCircle
 10
2.728493649053891
 20
0.523134665205268
 40
0.01000000000000001
  0
CIRCLE
  5
ED
100
AcDbEntity
  8
pump2
  6
CONTINUOUS
 62
  256
370
  158
100
AcDbCircle
 10
2.709474411167424
 20
0.4301923788646683
 40
0.01000000000000001
  0
CIRCLE
  5
EE
100
AcDbEntity
  8
pump2
  6
CONTINUOUS
 62
  256
370
  158
100
AcDbCircle
 10
2.807775681356646
 20
0.5004551732809563
 40
0.01000000000000001
  0
CIRCLE
  5
EF
100
AcDbEntity
  8
pump2
  6
CONTINUOUS
 62
  256
370
  158
100
AcDbCircle
 10
2.809737205583712
 20
0.3838526329025128
 40
0.01000000000000001
  0
CIRCLE
  5
F0
100
AcDbEntity
  8
pump2
  6
CONTINUOUS
 62
  256
370
  158
100
AcDbCircle
 10
2.777775681356646
 20
0.4484936490538903
 40
0.01000000000000001
  0
CIRCLE
  5
F1
100
AcDbEntity
  8
pump2
  6
CONTINUOUS
 62
  256
370
  158
100
AcDbCircle
 10
2.819544826719043
 20
0.5442373906318493
 40
0.01000000000000001
  0
CIRCLE
  5
F2
100
AcDbEntity
  8
pump2
  6
CONTINUOUS
 62
  256
370
  158
100
AcDbCircle
 10
1.167416697508023
 20
0.2476794919243113
 40
0.01000000000000001
  0
CIRCLE
  5
F3
100
AcDbEntity
  8
pump2
  6
CONTINUOUS
 62
  256
370
  158
100
AcDbCircle
 10
1.230717967697245
 20
0.2573205080756887
 40
0.01000000000000001
  0
CIRCLE
  5
F4
100
AcDbEntity
  8
pump2
  6
CONTINUOUS
 62
  256
370
  158
100
AcDbCircle
 10
1.236076951545867
 20
0.3466025403784436
 40
0.01000000000000001
  0
CIRCLE
  5
F5
100
AcDbEntity
  8
pump2
  6
CONTINUOUS
 62
  256
370
  158
100
AcDbCircle
 10
1.309019237886467
 20
0.2929422863405994
 40
0.01000000000000001
  0
CIRCLE
  5
F6
100
AcDbEntity
  8
pump2
  6
CONTINUOUS
 62
  256
370
  158
100
AcDbCircle
 10
1.29
 20
0.1999999999999999
 40
0.01000000000000001
  0
CIRCLE
  5
F7
100
AcDbEntity
  8
pump2
  6
CONTINUOUS
 62
  256
370
  158
100
AcDbCircle
 10
1.388301270189222
 20
0.270262794416288
 40
0.01000000000000001
  0
CIRCLE
  5
F8
100
AcDbEntity
  8
pump2
  6
CONTINUOUS
 62
  256
370
  158
100
AcDbCircle
 10
1.390262794416288
 20
0.1536602540378443
 40
0.01000000000000001
  0
CIRCLE
  5
F9
100
AcDbEntity
  8
pump2
  6
CONTINUOUS
 62
  256
370
  158
100
AcDbCircle
 10
1.358301270189222
 20
0.2183012701892219
 40
0.01000000000000001
  0
CIRCLE
  5
FA
100
AcDbEntity
  8
pump2
  6
CONTINUOUS
 62
  256
370
  158
100
AcDbCircle
 10
1.243256628518317
 20
0.06732050807568846
 40
0.01000000000000001
  0
CIRCLE
  5
FB
100
AcDbEntity
  8
pump2
  6
CONTINUOUS
 62
  256
370
  158
100
AcDbCircle
 10
1.192275866404784
 20
0.09562177826491042
 40
0.01000000000000001
  0
CIRCLE
  5
FC
100
AcDbEntity
  8
pump2
  6
CONTINUOUS
 62
  256
370
  158
100
AcDbCircle
 10
1.291173140978202
 20
0.07940399561580358
 40
0.01000000000000001
  0
CIRCLE
  5
FD
100
AcDbEntity
  8
pump2
  6
CONTINUOUS
 62
  256
370
  158
100
AcDbCircle
 10
1.354474411167425
 20
0.08904501176718116
 40
0.01000000000000001
  0
CIRCLE
  5
FE
100
AcDbEntity
  8
pump2
  6
CONTINUOUS
 62
  256
370
  158
100
AcDbCircle
 10
1.359833395016047
 20
0.1783270440699363
 40
0.01000000000000001
  0
CIRCLE
  5
FF
100
AcDbEntity
  8
pump2
  6
CONTINUOUS
 62
  256
370
  158
100
AcDbCircle
 10
1.432775681356646
 20
0.1246667900320917
 40
0.01000000000000001
  0
CIRCLE
  5
100
100
AcDbEntity
  8
pump2
  6
CONTINUOUS
 62
  256
370
  158
100
AcDbCircle
 10
1.501435935394491
 20
0.2235898384862245
 40
0.009999999999999953
  0
CIRCLE
  5
101
100
AcDbEntity
  8
pump2
  6
CONTINUOUS
 62
  256
370
  158
100
AcDbCircle
 10
1.465455173280957
 20
0.2212693304105356
 40
0.01000000000000001
  0
CIRCLE
  5
102
100
AcDbEntity
  8
pump2
  6
CONTINUOUS
 62
  256
370
  158
100
AcDbCircle
 10
1.512057713659401
 20
0.1019872981077805
 40
0.01000000000000001
  0
CIRCLE
  5
103
100
AcDbEntity
  8
pump2
  6
CONTINUOUS
 62
  256
370
  158
100
AcDbCircle
 10
2.847227722772277
 20
0.2122772277227721
 40
0.01000000000000001
  0
CIRCLE
  5
104
100
AcDbEntity
  8
pump2
  6
CONTINUOUS
 62
  256
370
  158
100
AcDbCircle
 10
2.758651481164714
 20
0.1653950689117454
 40
0.01000000000000001
  0
CIRCLE
  5
105
100
AcDbEntity
  8
pump2
  6
CONTINUOUS
 62
  256
370
  158
100
AcDbCircle
 10
2.695577362325399
 20
0.1543653122215928
 40
0.01000000000000001
  0
CIRCLE
  5
106
100
AcDbEntity
  8
pump2
  6
CONTINUOUS
 62
  256
370
  158
100
AcDbCircle
 10
2.662051611088318
 20
0.2372871067269539
 40
0.01000000000000001
  0
CIRCLE
  5
107
100
AcDbEntity
  8
pump2
  6
CONTINUOUS
 62
  256
370
  158
100
AcDbCircle
 10
2.610007248939155
 20
0.1631832311974862
 40
0.01000000000000001
  0
CIRCLE
  5
108
100
AcDbEntity
  8
pump2
  6
CONTINUOUS
 62
  256
370
  158
100
AcDbCircle
 10
2.811519110292998
 20
0.1279410104059103
 40
0.01000000000000001
  0
CIRCLE
  5
109
100
AcDbEntity
  8
pump2
  6
CONTINUOUS
 62
  256
370
  158
100
AcDbCircle
 10
2.830635640149024
 20
0.07106783319324149
 40
0.01000000000000001
  0
CIRCLE
  5
10A
100
AcDbEntity
  8
pump2
  6
CONTINUOUS
 62
  256
370
  158
100
AcDbCircle
 10
2.691382565996732
 20
0.1045951754260003
 40
0.009999999999999953
  0
CIRCLE
  5
10B
100
AcDbEntity
  8
pump2
  6
CONTINUOUS
 62
  256
370
  158
100
AcDbCircle
 10
2.726191331221742
 20
0.09519571461645704
 40
0.01000000000000001
  0
CIRCLE
  5
10C
100
AcDbEntity
  8
pump2
  6
CONTINUOUS
 62
  256
370
  158
100
AcDbCircle
 10
1.695814157129579
 20
0.1829422863405994
 40
0.009999999999999898
  0
CIRCLE
  5
10D
100
AcDbEntity
  8
pump2
  6
CONTINUOUS
 62
  256
370
  158
100
AcDbCircle
 10
1.76143593539449
 20
0.1566025403784436
 40
0.009999999999999953
  0
CIRCLE
  5
10E
100
AcDbEntity
  8
pump2
  6
CONTINUOUS
 62
  256
370
  158
100
AcDbCircle
 10
1.742416697508023
 20
0.06366025403784427
 40
0.01000000000000001
  0
CIRCLE
  5
10F
100
AcDbEntity
  8
pump2
  6
CONTINUOUS
 62
  256
370
  158
100
AcDbCircle
 10
1.780551362713291
 20
0.1033012701892215
 40
0.01000000000000001
  0
CIRCLE
  5
110
100
AcDbEntity
  8
pump2
  6
CONTINUOUS
 62
  256
370
  158
100
AcDbCircle
 10
1.843852632902512
 20
0.1129422863405989
 40
0.01000000000000001
  0
CIRCLE
  5
111
100
AcDbEntity
  8
pump2
  6
CONTINUOUS
 62
  256
370
  158
100
AcDbCircle
 10
1.849211616751135
 20
0.202224318643354
 40
0.01000000000000001
  0
CIRCLE
  5
112
100
AcDbEntity
  8
pump2
  6
CONTINUOUS
 62
  256
370
  158
100
AcDbCircle
 10
1.922153903091735
 20
0.1485640646055099
 40
0.01000000000000001
  0
CIRCLE
  5
113
100
AcDbEntity
  8
pump2
  6
CONTINUOUS
 62
  256
370
  158
100
AcDbCircle
 10
1.903134665205267
 20
0.05562177826491028
 40
0.01000000000000001
  0
CIRCLE
  5
114
100
AcDbEntity
  8
pump2
  6
CONTINUOUS
 62
  256
370
  158
100
AcDbCircle
 10
2.001435935394489
 20
0.1258845726811983
 40
0.01000000000000001
  0
CIRCLE
  5
115
100
AcDbEntity
  8
pump2
  6
CONTINUOUS
 62
  256
370
  158
100
AcDbCircle
 10
1.954903810567665
 20
0.168686027918558
 40
0.01000000000000001
  0
CIRCLE
  5
116
100
AcDbEntity
  8
pump2
  6
CONTINUOUS
 62
  256
370
  158
100
AcDbCircle
 10
2.062583302491977
 20
0.1682050807568885
 40
0.01000000000000001
  0
CIRCLE
  5
117
100
AcDbEntity
  8
pump2
  6
CONTINUOUS
 62
  256
370
  158
100
AcDbCircle
 10
2.011339745962156
 20
0.07500000000000032
 40
0.01000000000000001
  0
CIRCLE
  5
118
100
AcDbEntity
  8
pump2
  6
CONTINUOUS
 62
  256
370
  158
100
AcDbCircle
 10
2.091339745962156
 20
0.09499999999999983
 40
0.01000000000000001
  0
CIRCLE
  5
119
100
AcDbEntity
  8
pump2
  6
CONTINUOUS
 62
  256
370
  158
100
AcDbCircle
 10
2.029641016151377
 20
0.1088010851410836
 40
0.01000000000000001
  0
CIRCLE
  5
11A
100
AcDbEntity
  8
pump2
  6
CONTINUOUS
 62
  256
370
  158
100
AcDbCircle
 10
2.122057713659401
 20
0.1144744111674248
 40
0.01000000000000001
  0
CIRCLE
  5
11B
100
AcDbEntity
  8
pump2
  6
CONTINUOUS
 62
  256
370
  158
100
AcDbCircle
 10
2.18356406460551
 20
0.06545517328095697
 40
0.01000000000000001
  0
CIRCLE
  5
11C
100
AcDbEntity
  8
pump2
  6
CONTINUOUS
 62
  256
370
  158
100
AcDbCircle
 10
2.123230854637602
 20
0.04655789870753865
 40
0.01000000000000001
  0
CIRCLE
  5
11D
100
AcDbEntity
  8
pump2
  6
CONTINUOUS
 62
  256
370
  158
100
AcDbCircle
 10
1.086744617359773
 20
0.1581278143157854
 40
0.009999999999999953
  0
CIRCLE
  5
11E
100
AcDbEntity
  8
pump2
  6
CONTINUOUS
 62
  256
370
  158
100
AcDbCircle
 10
1.121088350520646
 20
0.1471502010699675
 40
0.01000000000000001
  0
CIRCLE
  5
11F
100
AcDbEntity
  8
pump2
  6
CONTINUOUS
 62
  256
370
  158
100
AcDbCircle
 10
1.114767017268887
 20
0.09093596136221904
 40
0.01000000000000001
  0
CIRCLE
  5
120
100
AcDbEntity
  8
pump2
  6
CONTINUOUS
 62
  256
370
  158
100
AcDbCircle
 10
1.121257790410167
 20
0.2752125737253414
 40
0.01000000000000001
  0
CIRCLE
  5
121
100
AcDbEntity
  8
pump2
  6
CONTINUOUS
 62
  256
370
  158
100
AcDbCircle
 10
1.071195444064656
 20
0.209685774029475
 40
0.01000000000000001
  0
CIRCLE
  5
122
100
AcDbEntity
  8
pump2
  6
CONTINUOUS
 62
  256
370
  158
100
AcDbCircle
 10
2.048134665205269
 20
0.5603589838486225
 40
0.01000000000000001
  0
CIRCLE
  5
123
100
AcDbEntity
  8
pump2
  6
CONTINUOUS
 62
  256
370
  158
100
AcDbCircle
 10
2.120096189432335
 20
0.555717967697245
 40
0.009999999999999953
  0
CIRCLE
  5
124
100
AcDbEntity
  8
pump2
  6
CONTINUOUS
 62
  256
370
  158
100
AcDbCircle
 10
2.057153903091736
 20
0.4847372055837119
 40
0.01000000000000001
  0
CIRCLE
  5
125
100
AcDbEntity
  8
pump2
  6
CONTINUOUS
 62
  256
370
  158
100
AcDbCircle
 10
2.11
 20
0.5
 40
0.01000000000000001
  0
CIRCLE
  5
126
100
AcDbEntity
  8
pump2
  6
CONTINUOUS
 62
  256
370
  158
100
AcDbCircle
 10
2.450288568297003
 20
0.4244744111674231
 40
0.01000000000000001
  0
CIRCLE
  5
127
100
AcDbEntity
  8
pump2
  6
CONTINUOUS
 62
  256
370
  158
100
AcDbCircle
 10
2.540288568297003
 20
0.4144744111674236
 40
0.01000000000000001
  0
CIRCLE
  5
128
100
AcDbEntity
  8
pump2
  6
CONTINUOUS
 62
  256
370
  158
100
AcDbCircle
 10
2.550288568297002
 20
0.534474411167423
 40
0.009999999999999953
  0
CIRCLE
  5
129
100
AcDbEntity
  8
pump2
  6
CONTINUOUS
 62
  256
370
  158
100
AcDbCircle
 10
2.520288568297003
 20
0.5144744111674233
 40
0.01000000000000001
  0
CIRCLE
  5
12A
100
AcDbEntity
  8
pump2
  6
CONTINUOUS
 62
  256
370
  158
100
AcDbCircle
 10
2.600288568297003
 20
0.5144744111674233
 40
0.01000000000000001
  0
CIRCLE
  5
12B
100
AcDbEntity
  8
pump2
  6
CONTINUOUS
 62
  256
370
  158
100
AcDbCircle
 10
2.754045011767182
 20
0.426724503691492
 40
0.01000000000000001
  0
CIRCLE
  5
12C
100
AcDbEntity
  8
pump2
  6
CONTINUOUS
 62
  256
370
  158
100
AcDbCircle
 10
2.836987298107782
 20
0.463064249653648
 40
0.01000000000000001
  0
CIRCLE
  5
12D
100
AcDbEntity
  8
pump2
  6
CONTINUOUS
 62
  256
370
  158
100
AcDbCircle
 10
2.785647552145626
 20
0.5719872981077799
 40
0.009999999999999953
  0
CIRCLE
  5
12E
100
AcDbEntity
  8
pump2
  6
CONTINUOUS
 62
  256
370
  158
100
AcDbCircle
 10
2.769666790032093
 20
0.5396667900320916
 40
0.01000000000000001
  0
CIRCLE
  5
12F
100
AcDbEntity
  8
pump2
  6
CONTINUOUS
 62
  256
370
  158
100
AcDbCircle
 10
2.838948822334848
 20
0.5796667900320915
 40
0.01000000000000001
  0
CIRCLE
  5
130
100
AcDbEntity
  8
pump2
  6
CONTINUOUS
 62
  256
370
  158
100
AcDbCircle
 10
2.8
 20
0.3
 40
0.01000000000000001
  0
LWPOLYLINE
  5
131
100
AcDbEntity
  8
0
  6
ByLayer
 62
  256
370
   -1
100
AcDbPolyline
 90
    4
 70
    1
 43
0
 10
0
 20
0
 10
5.25
 20
0
 10
5.25
 20
0.6
 10
0
 20
0.6
  0
LWPOLYLINE
  5
132
100
AcDbEntity
  8
0
  6
ByLayer
 62
  256
370
   -1
100
AcDbPolyline
 90
    4
 70
    1
 43
0
 10
1
 20
0.6
 10
3
 20
0.6
 10
3
 20
-5.551115123125783e-017
 10
1
 20
-5.551115123125783e-017
  0
ENDSEC
  0
SECTION
  2
OBJECTS
  0
DICTIONARY
  5
C
330
0
100
AcDbDictionary
281
    1
  3
ACAD_GROUP
350
D
  0
DICTIONARY
  5
D
330
C
100
AcDbDictionary
281
    1
  0
ENDSEC
  0
EOF
